<svg width="483" height="241" viewBox="0 0 483 241" fill="none" xmlns="http://www.w3.org/2000/svg">
<rect width="483" height="241" fill="#EFEFEF"/>
<path d="M277.769 113.467L264.457 100.298C263.699 99.5479 262.67 99.1267 261.598 99.1267C260.526 99.1267 259.498 99.5479 258.74 100.298L256.371 102.641C255.613 103.391 254.585 103.812 253.513 103.812C252.441 103.812 251.413 103.391 250.655 102.641L239.016 91.1275C237.499 89.628 235.443 88.7857 233.299 88.7857C231.155 88.7857 229.099 89.628 227.583 91.1275L205 113.467M277.769 65.4767V121.465C277.769 122.526 277.344 123.543 276.585 124.293C275.827 125.043 274.799 125.464 273.727 125.464H209.043C207.971 125.464 206.942 125.043 206.184 124.293C205.426 123.543 205 122.526 205 121.465V65.4767C205 64.4161 205.426 63.3989 206.184 62.6489C206.942 61.8989 207.971 61.4775 209.043 61.4775H273.727C274.799 61.4775 275.827 61.8989 276.585 62.6489C277.344 63.3989 277.769 64.4161 277.769 65.4767Z" stroke="#B6B6B6" stroke-width="4" stroke-linecap="round" stroke-linejoin="round"/>
<path d="M196.668 162H193.27L186.402 152.039H186.273V162H182.289V145.031H185.746L192.543 154.98H192.695V145.031H196.668V162ZM215.184 153.516C215.184 155.328 214.832 156.891 214.129 158.203C213.426 159.516 212.465 160.516 211.246 161.203C210.027 161.891 208.648 162.234 207.109 162.234C205.578 162.234 204.199 161.891 202.973 161.203C201.754 160.516 200.793 159.512 200.09 158.191C199.395 156.871 199.047 155.312 199.047 153.516C199.047 151.688 199.395 150.117 200.09 148.805C200.793 147.492 201.754 146.496 202.973 145.816C204.199 145.137 205.578 144.797 207.109 144.797C208.648 144.797 210.027 145.137 211.246 145.816C212.465 146.496 213.426 147.492 214.129 148.805C214.832 150.117 215.184 151.688 215.184 153.516ZM211.105 153.516C211.105 152.398 210.945 151.453 210.625 150.68C210.312 149.898 209.855 149.309 209.254 148.91C208.66 148.504 207.945 148.301 207.109 148.301C206.281 148.301 205.566 148.504 204.965 148.91C204.371 149.309 203.914 149.898 203.594 150.68C203.281 151.453 203.125 152.398 203.125 153.516C203.125 154.633 203.281 155.582 203.594 156.363C203.914 157.137 204.371 157.727 204.965 158.133C205.566 158.531 206.281 158.73 207.109 158.73C207.945 158.73 208.66 158.531 209.254 158.133C209.855 157.727 210.312 157.137 210.625 156.363C210.945 155.582 211.105 154.633 211.105 153.516ZM226.914 162H222.93V145.031H226.914V162ZM234.426 145.031L238.82 155.707H239.02L243.391 145.031H248.348V162H244.457V151.441H244.316L240.168 161.895H237.66L233.523 151.406H233.383V162H229.492V145.031H234.426ZM250.164 162L255.906 145.031H261.191L266.945 162H262.656L258.625 149.227H258.484L254.453 162H250.164ZM263.125 155.309V158.367H253.926V155.309H263.125ZM279.109 150.562C278.984 150.086 278.773 149.68 278.477 149.344C278.18 149.008 277.816 148.75 277.387 148.57C276.957 148.391 276.461 148.301 275.898 148.301C275.07 148.301 274.348 148.504 273.73 148.91C273.121 149.316 272.648 149.91 272.312 150.691C271.984 151.473 271.82 152.406 271.82 153.492C271.82 154.602 271.98 155.547 272.301 156.328C272.621 157.102 273.086 157.695 273.695 158.109C274.312 158.523 275.047 158.73 275.898 158.73C276.656 158.73 277.305 158.602 277.844 158.344C278.383 158.086 278.789 157.723 279.062 157.254C279.344 156.785 279.484 156.234 279.484 155.602L280.234 155.695H276.062V152.754H283.328V154.98C283.328 156.465 283.008 157.754 282.367 158.848C281.734 159.941 280.855 160.781 279.73 161.367C278.613 161.945 277.328 162.234 275.875 162.234C274.273 162.234 272.855 161.883 271.621 161.18C270.395 160.477 269.441 159.469 268.762 158.156C268.082 156.844 267.742 155.305 267.742 153.539C267.742 151.734 268.098 150.172 268.809 148.852C269.52 147.531 270.484 146.527 271.703 145.84C272.922 145.145 274.289 144.797 275.805 144.797C277.102 144.797 278.281 145.043 279.344 145.535C280.414 146.027 281.281 146.711 281.945 147.586C282.617 148.453 283.023 149.445 283.164 150.562H279.109ZM285.719 145.031H297.473V148.289H289.703V151.887H296.863V155.133H289.703V158.742H297.473V162H285.719V145.031Z" fill="#A1A1A1"/>
<path d="M168.128 183.82H154.548V182.517H168.128V183.82ZM166.551 181.222H156.25V179.952H166.551V181.222ZM166.459 177.362H157.802V180.575H156.25V176.067H166.459V177.362ZM161.321 184.982C162.389 184.982 163.308 185.088 164.077 185.298C164.852 185.508 165.441 185.815 165.845 186.219C166.255 186.623 166.459 187.11 166.459 187.68C166.459 188.256 166.255 188.745 165.845 189.149C165.441 189.553 164.855 189.861 164.085 190.071C163.316 190.281 162.395 190.386 161.321 190.386C160.248 190.386 159.324 190.281 158.549 190.071C157.774 189.861 157.182 189.553 156.772 189.149C156.363 188.745 156.158 188.256 156.158 187.68C156.158 187.11 156.363 186.623 156.772 186.219C157.182 185.815 157.774 185.508 158.549 185.298C159.324 185.088 160.248 184.982 161.321 184.982ZM161.321 186.194C160.563 186.194 159.918 186.255 159.387 186.377C158.856 186.493 158.452 186.662 158.175 186.883C157.899 187.099 157.76 187.365 157.76 187.68C157.76 187.996 157.899 188.264 158.175 188.485C158.452 188.707 158.856 188.875 159.387 188.992C159.918 189.102 160.563 189.158 161.321 189.158C162.079 189.158 162.721 189.102 163.247 188.992C163.778 188.875 164.182 188.707 164.459 188.485C164.736 188.264 164.874 187.996 164.874 187.68C164.874 187.365 164.736 187.099 164.459 186.883C164.182 186.662 163.778 186.493 163.247 186.377C162.716 186.255 162.074 186.194 161.321 186.194ZM182.837 184.941H169.224V183.654H182.837V184.941ZM181.119 179.628H172.536V181.513H170.975V178.466H179.542V177.138H170.934V175.876H181.119V179.628ZM181.426 182.251H170.975V181.015H181.426V182.251ZM176.802 184.318H175.25V181.621H176.802V184.318ZM181.202 190.295H179.616V187.24H170.743V185.979H181.202V190.295ZM192.59 181.579H185.319V180.309H192.59V181.579ZM189.693 184.02H188.133V181.098H189.693V184.02ZM192.474 177.761H186.904V180.865H185.319V176.474H192.474V177.761ZM196.276 186.692H194.69V175.536H196.276V186.692ZM196.732 190.112H186.456V188.809H196.732V190.112ZM188.033 189.349H186.456V185.896H188.033V189.349ZM183.999 183.588C185.853 183.577 187.566 183.544 189.137 183.488C190.714 183.433 192.186 183.331 193.553 183.181L193.669 184.327C192.22 184.526 190.695 184.664 189.096 184.742C187.502 184.814 185.878 184.85 184.223 184.85L183.999 183.588ZM215.102 190.444H213.517V175.528H215.102V190.444ZM207.133 176.648C207.875 176.648 208.536 176.864 209.117 177.296C209.698 177.728 210.152 178.336 210.479 179.122C210.805 179.908 210.968 180.824 210.968 181.87C210.968 182.921 210.805 183.84 210.479 184.625C210.152 185.411 209.698 186.02 209.117 186.452C208.536 186.878 207.875 187.091 207.133 187.091C206.392 187.091 205.728 186.878 205.141 186.452C204.56 186.02 204.106 185.411 203.78 184.625C203.453 183.84 203.29 182.921 203.29 181.87C203.29 180.824 203.453 179.908 203.78 179.122C204.106 178.336 204.56 177.728 205.141 177.296C205.728 176.864 206.392 176.648 207.133 176.648ZM207.133 178.06C206.68 178.06 206.276 178.215 205.921 178.524C205.567 178.834 205.293 179.277 205.1 179.853C204.911 180.423 204.817 181.095 204.817 181.87C204.817 182.639 204.911 183.311 205.1 183.887C205.293 184.462 205.567 184.905 205.921 185.215C206.276 185.519 206.68 185.671 207.133 185.671C207.587 185.671 207.988 185.519 208.337 185.215C208.691 184.905 208.965 184.462 209.159 183.887C209.352 183.311 209.449 182.639 209.449 181.87C209.449 181.095 209.352 180.423 209.159 179.853C208.965 179.277 208.694 178.834 208.345 178.524C207.997 178.215 207.593 178.06 207.133 178.06ZM225.279 186.734H218.298V176.964H225.279V186.734ZM219.85 185.472H223.735V178.209H219.85V185.472ZM229.794 190.444H228.209V175.528H229.794V190.444ZM237.332 179.919C237.332 180.987 237.146 182.033 236.775 183.057C236.405 184.075 235.896 184.982 235.248 185.779C234.601 186.571 233.867 187.166 233.048 187.564L232.119 186.327C232.855 185.973 233.521 185.456 234.119 184.775C234.717 184.089 235.184 183.322 235.522 182.476C235.865 181.623 236.037 180.771 236.037 179.919V177.711H237.332V179.919ZM237.63 179.919C237.63 180.738 237.796 181.551 238.128 182.359C238.466 183.167 238.934 183.887 239.531 184.518C240.134 185.148 240.812 185.627 241.565 185.954L240.693 187.19C239.852 186.814 239.102 186.255 238.444 185.514C237.791 184.772 237.282 183.917 236.917 182.949C236.557 181.98 236.377 180.97 236.377 179.919V177.711H237.63V179.919ZM241.034 178.333H232.642V177.039H241.034V178.333ZM244.487 190.403H242.901V175.528H244.487V190.403ZM258.44 190.395H256.872V175.528H258.44V190.395ZM260.748 182.783H258.034V181.471H260.748V182.783ZM254.547 177.105C254.547 178.594 254.315 179.985 253.85 181.28C253.391 182.57 252.655 183.759 251.642 184.85C250.635 185.934 249.337 186.869 247.749 187.655L246.869 186.427C248.236 185.741 249.373 184.949 250.281 184.053C251.188 183.151 251.869 182.146 252.323 181.04C252.777 179.927 253.003 178.707 253.003 177.379V177.105H254.547ZM253.8 178.417H247.6V177.105H253.8V178.417ZM268.866 185.979H271.199V184.252H272.66V190.22H267.397V184.252H268.866V185.979ZM271.199 189V187.166H268.866V189H271.199ZM276.619 185.373C276.619 186.07 276.506 186.745 276.279 187.398C276.052 188.045 275.706 188.626 275.241 189.141C274.776 189.661 274.209 190.06 273.54 190.336L272.734 189.149C273.31 188.906 273.797 188.585 274.195 188.187C274.599 187.788 274.901 187.345 275.1 186.858C275.305 186.371 275.407 185.876 275.407 185.373V184.144H276.619V185.373ZM276.984 185.373C276.984 185.909 277.081 186.424 277.275 186.917C277.469 187.409 277.767 187.852 278.171 188.245C278.581 188.632 279.079 188.934 279.666 189.149L278.852 190.336C278.16 190.076 277.582 189.694 277.117 189.191C276.658 188.687 276.318 188.112 276.096 187.464C275.875 186.811 275.764 186.114 275.764 185.373V184.144H276.984V185.373ZM277.192 180.226H273.257V178.939H277.192V180.226ZM269.812 176.159C270.549 176.159 271.21 176.305 271.796 176.599C272.383 176.886 272.845 177.293 273.183 177.819C273.52 178.339 273.689 178.934 273.689 179.604C273.689 180.279 273.52 180.879 273.183 181.405C272.845 181.925 272.383 182.332 271.796 182.625C271.21 182.918 270.549 183.065 269.812 183.065C269.06 183.065 268.388 182.918 267.795 182.625C267.209 182.332 266.747 181.925 266.409 181.405C266.077 180.879 265.911 180.279 265.911 179.604C265.911 178.934 266.077 178.339 266.409 177.819C266.747 177.293 267.209 176.886 267.795 176.599C268.388 176.305 269.06 176.159 269.812 176.159ZM269.812 177.47C269.348 177.47 268.933 177.562 268.567 177.744C268.208 177.921 267.925 178.173 267.721 178.5C267.516 178.82 267.414 179.188 267.414 179.604C267.414 180.024 267.516 180.4 267.721 180.732C267.925 181.059 268.208 181.313 268.567 181.496C268.933 181.679 269.348 181.77 269.812 181.77C270.272 181.77 270.681 181.679 271.041 181.496C271.401 181.313 271.68 181.059 271.879 180.732C272.079 180.4 272.178 180.024 272.178 179.604C272.178 179.188 272.079 178.82 271.879 178.5C271.68 178.173 271.401 177.921 271.041 177.744C270.681 177.562 270.272 177.47 269.812 177.47ZM278.097 183.405H276.52V175.528H278.097V183.405ZM283.625 186.037H290.614V184.459H292.191V190.22H282.064V184.459H283.625V186.037ZM290.614 188.967V187.257H283.625V188.967H290.614ZM293.951 183.505H280.388V182.227H293.951V183.505ZM287.726 176.325C287.726 177.155 287.454 177.921 286.912 178.624C286.375 179.321 285.648 179.902 284.729 180.367C283.816 180.832 282.812 181.145 281.716 181.305L281.126 180.052C282.078 179.924 282.955 179.678 283.758 179.313C284.56 178.948 285.194 178.505 285.659 177.985C286.129 177.459 286.364 176.906 286.364 176.325V175.686H287.726V176.325ZM287.983 176.325C287.983 176.895 288.218 177.443 288.688 177.968C289.159 178.488 289.795 178.937 290.598 179.313C291.406 179.689 292.277 179.936 293.212 180.052L292.64 181.305C291.538 181.145 290.528 180.829 289.61 180.359C288.697 179.889 287.969 179.305 287.427 178.607C286.89 177.905 286.622 177.144 286.622 176.325V175.686H287.983V176.325ZM307.423 190.403H305.863V175.528H307.423V190.403ZM297.545 186.203H295.993V176.98H297.545V186.203ZM297.238 185.273C298.434 185.273 299.626 185.22 300.816 185.115C302.011 185.005 303.207 184.825 304.402 184.576L304.609 185.904C303.359 186.158 302.13 186.344 300.924 186.46C299.723 186.571 298.494 186.626 297.238 186.626H295.993V185.273H297.238ZM321.36 190.444H319.792V175.528H321.36V190.444ZM323.759 182.6H321.003V181.297H323.759V182.6ZM311.607 185.439C313.013 185.439 314.241 185.403 315.292 185.331C316.344 185.254 317.404 185.118 318.472 184.924L318.663 186.269C317.578 186.463 316.504 186.593 315.442 186.659C314.385 186.72 313.107 186.75 311.607 186.75H310.403V185.439H311.607ZM317.359 178.25H311.972V186.053H310.403V176.956H317.359V178.25Z" fill="#A1A1A1"/>
<circle cx="241.155" cy="79.6698" r="6.6552" stroke="#B6B6B6" stroke-width="3"/>
</svg>
