<svg width="535" height="534" viewBox="0 0 535 534" fill="none" xmlns="http://www.w3.org/2000/svg">
<path fill-rule="evenodd" clip-rule="evenodd" d="M499.708 399C521.542 360.298 534 315.604 534 268C534 120.54 414.46 1 267 1C119.54 1 0 120.54 0 268C0 315.604 12.458 360.298 34.292 399H499.708Z" fill="#D8F0FF"/>
<mask id="mask0_1136_1297" style="mask-type:alpha" maskUnits="userSpaceOnUse" x="1" y="0" width="534" height="534">
<circle cx="268" cy="267" r="267" fill="#D8F0FF"/>
</mask>
<g mask="url(#mask0_1136_1297)">
<path fill-rule="evenodd" clip-rule="evenodd" d="M34.4384 134.236C34.4384 128.583 39.0212 124 44.6744 124H149.764C155.417 124 160 128.583 160 134.236C160 138.755 157.072 142.59 153.009 143.947H96.1158C90.3176 143.947 85.6173 148.647 85.6173 154.445C85.6173 160.243 90.3176 164.944 96.1158 164.944H136.841L136.797 164.944H50.4249C54.6141 163.565 57.6383 159.62 57.6383 154.969C57.6383 149.171 52.938 144.471 47.1399 144.471H44.5315C38.9442 144.395 34.4384 139.841 34.4384 134.236ZM7.99504 165.468C3.93031 166.824 1 170.66 1 175.18C1 180.833 5.58281 185.416 11.236 185.416H117.69C123.343 185.416 127.926 180.833 127.926 175.18C127.926 169.527 123.343 164.944 117.69 164.944H50.4234C49.3904 165.284 48.2866 165.468 47.1399 165.468H7.99504Z" fill="#BFE2FF"/>
<path fill-rule="evenodd" clip-rule="evenodd" d="M389.214 208.158C389.214 215.687 395.317 221.79 402.845 221.79H545.369C552.897 221.79 559 215.687 559 208.158C559 202.141 555.102 197.034 549.692 195.227H472.405C464.683 195.227 458.423 188.967 458.423 181.246C458.423 173.561 464.623 167.325 472.293 167.265H410.993C416.567 169.104 420.59 174.355 420.59 180.545C420.59 188.266 414.33 194.526 406.609 194.526H357.385C357.467 194.527 357.549 194.528 357.632 194.528H402.66C395.217 194.627 389.214 200.692 389.214 208.158ZM353.308 166.564C347.899 164.756 344 159.649 344 153.632C344 146.104 350.103 140 357.632 140H502.001C509.529 140 515.632 146.104 515.632 153.632C515.632 161.161 509.529 167.264 502.001 167.264H410.989C409.611 166.809 408.139 166.564 406.609 166.564H353.308Z" fill="#BFE2FF"/>
<path fill-rule="evenodd" clip-rule="evenodd" d="M347.171 54.9052C347.171 48.8824 352.053 44 358.076 44H472.095C478.117 44 483 48.8824 483 54.9052C483 59.7184 479.882 63.8033 475.555 65.2499H413.722C412.498 65.2499 411.319 65.4468 410.216 65.8105H361.185C361.152 65.8102 361.119 65.81 361.087 65.81H357.979C352.001 65.7579 347.171 60.8956 347.171 54.9052ZM318.45 88.1797C314.121 89.6249 311 93.7111 311 98.5261C311 104.549 315.882 109.431 321.905 109.431H437.4C443.423 109.431 448.305 104.549 448.305 98.5261C448.305 92.5356 443.475 87.6732 437.497 87.6213H458.07C458.134 87.6213 458.198 87.6207 458.262 87.6196H413.722C407.545 87.6196 402.538 82.612 402.538 76.4348C402.538 71.4826 405.756 67.2821 410.215 65.8108H361.223C367.337 65.8837 372.271 70.8631 372.271 76.9949C372.271 83.1721 367.264 88.1797 361.087 88.1797H318.45Z" fill="white"/>
<path fill-rule="evenodd" clip-rule="evenodd" d="M232.798 148.572C232.798 144.942 235.741 142 239.37 142H308.082C311.711 142 314.654 144.942 314.654 148.572C314.654 151.473 312.775 153.934 310.167 154.806H272.904C269.181 154.806 266.163 157.824 266.163 161.546C266.163 165.269 269.181 168.287 272.904 168.287H299.709C299.682 168.287 299.656 168.287 299.63 168.287H243.294C245.983 167.402 247.924 164.869 247.924 161.884C247.924 158.161 244.906 155.144 241.184 155.144H239.31C235.708 155.111 232.798 152.181 232.798 148.572ZM215.491 168.624C212.882 169.495 211 171.958 211 174.86C211 178.49 213.942 181.432 217.572 181.432H287.173C290.803 181.432 293.745 178.49 293.745 174.86C293.745 171.231 290.803 168.288 287.173 168.288H243.291C242.628 168.506 241.92 168.624 241.184 168.624H215.491Z" fill="white"/>
<path fill-rule="evenodd" clip-rule="evenodd" d="M184.931 19.2712C184.931 13.5986 180.333 9 174.66 9H67.2711C61.5985 9 56.9999 13.5986 56.9999 19.2712C56.9999 23.8052 59.9378 27.6531 64.0138 29.0151H122.251C123.403 29.0151 124.513 29.2002 125.551 29.5423H171.673C171.724 29.5416 171.775 29.5412 171.827 29.5412H174.812C180.414 29.4602 184.931 24.8932 184.931 19.2712ZM211.981 50.6103C216.06 51.9706 219 55.8199 219 60.356C219 66.0286 214.401 70.6272 208.729 70.6272H99.9493C94.2767 70.6272 89.6782 66.0286 89.6782 60.356C89.6782 54.6834 94.2767 50.0849 99.9493 50.0849H168.532C169.568 50.4258 170.676 50.6103 171.827 50.6103H211.981ZM168.532 50.0848H80.4815C80.4435 50.0848 80.4056 50.0845 80.3677 50.0841H122.251C128.069 50.0841 132.785 45.3677 132.785 39.5496C132.785 34.8843 129.753 30.9273 125.551 29.5424H171.666C165.922 29.6282 161.292 34.3113 161.292 40.0758C161.292 44.7431 164.327 48.7015 168.532 50.0848Z" fill="#F1FDFF"/>
<path d="M183 94C183 89.5817 186.582 86 191 86H239C243.418 86 247 89.5817 247 94V94C247 98.4183 243.418 102 239 102H191C186.582 102 183 98.4183 183 94V94Z" fill="white"/>
<rect x="-30" y="247" width="589" height="119" fill="#26A6FE"/>
<rect x="220" y="284" width="89" height="28" fill="#F0F0F0"/>
<path d="M122 203C122 198.029 126.029 194 131 194H162C166.971 194 171 198.029 171 203V203C171 207.971 166.971 212 162 212H131C126.029 212 122 207.971 122 203V203Z" fill="#BFE2FF"/>
<path d="M107 277C107 273.686 109.686 271 113 271H177C180.314 271 183 273.686 183 277V277C183 280.314 180.314 283 177 283H113C109.686 283 107 280.314 107 277V277Z" fill="#0182FC"/>
<path d="M418 277C418 273.686 420.686 271 424 271H488C491.314 271 494 273.686 494 277V277C494 280.314 491.314 283 488 283H424C420.686 283 418 280.314 418 277V277Z" fill="#0182FC"/>
<path d="M445 295C445 291.686 447.686 289 451 289H515C518.314 289 521 291.686 521 295V295C521 298.314 518.314 301 515 301H451C447.686 301 445 298.314 445 295V295Z" fill="#0182FC"/>
<path d="M52 290C52 286.686 54.6863 284 58 284H93C96.3137 284 99 286.686 99 290V290C99 293.314 96.3137 296 93 296H58C54.6863 296 52 293.314 52 290V290Z" fill="#0182FC"/>
<path d="M363 290C363 286.686 365.686 284 369 284H404C407.314 284 410 286.686 410 290V290C410 293.314 407.314 296 404 296H369C365.686 296 363 293.314 363 290V290Z" fill="#0182FC"/>
<path d="M2 329.5C2 325.358 5.35786 322 9.5 322H64.5C68.6421 322 72 325.358 72 329.5V329.5C72 333.642 68.6421 337 64.5 337H9.5C5.35786 337 2 333.642 2 329.5V329.5Z" fill="#0182FC"/>
<path d="M-22 271.5C-22 268.462 -19.5376 266 -16.5 266H19.5C22.5376 266 25 268.462 25 271.5V271.5C25 274.538 22.5376 277 19.5 277H-16.5C-19.5376 277 -22 274.538 -22 271.5V271.5Z" fill="#0182FC"/>
<path d="M267.5 301C75.1 301 -12 362.333 -30.5 398H273.25H577C553.333 362.333 459.9 301 267.5 301Z" fill="#97D729" stroke="#8EC72B" stroke-width="7" stroke-linecap="round" stroke-linejoin="round"/>
<path d="M264.216 167C241.816 167 230.882 198 228.216 213.5H301.716C298.549 198 286.616 167 264.216 167Z" fill="#D9D9D9" stroke="#777785" stroke-width="6"/>
<path d="M218.5 213H311.5C315.642 213 319 216.358 319 220.5C319 224.642 315.642 228 311.5 228H218.5C214.358 228 211 224.642 211 220.5C211 216.358 214.358 213 218.5 213Z" fill="#F0F0F0" stroke="#777785" stroke-width="6"/>
<path d="M227.716 263V231.5V228H302.216V263C301.382 274.167 292.816 296.5 265.216 296.5C237.616 296.5 228.716 274.167 227.716 263Z" fill="#F0F0F0" stroke="#777785" stroke-width="5"/>
<circle cx="249.216" cy="251" r="11" fill="#D9D9D9" stroke="#777785" stroke-width="6"/>
<circle cx="279.216" cy="251" r="11" fill="#D9D9D9" stroke="#777785" stroke-width="6"/>
<path d="M210.216 252.5C210.216 241.3 221.882 241.833 227.716 243.5V268C214.116 272.4 210.382 266.167 210.216 262.5V252.5Z" fill="#D9D9D9" stroke="#777785" stroke-width="5"/>
<path d="M319.716 252.908C319.716 241.708 308.049 242.241 302.216 243.908V268.408C315.816 272.808 319.549 266.575 319.716 262.908V252.908Z" fill="#D9D9D9" stroke="#777785" stroke-width="5"/>
<path d="M204.715 314.5C204.715 292.5 221.382 278 229.715 273.5C231.049 274.833 234.316 278.7 236.716 283.5C224.216 293.5 218.715 309 218.715 321C218.715 333 214.716 326.5 233.716 328.5C244.386 329.623 246.856 336.896 246.883 343.5C246.904 348.656 245.435 353.404 245.216 354.5C244.716 357 238.215 365 218.715 361C199.215 357 204.715 342 204.715 314.5Z" fill="#F0F0F0"/>
<path d="M246.883 343.5C246.904 348.656 245.435 353.404 245.216 354.5C244.716 357 238.215 365 218.715 361C199.215 357 204.715 342 204.715 314.5C204.715 292.5 221.382 278 229.715 273.5C231.049 274.833 234.316 278.7 236.716 283.5C224.216 293.5 218.715 309 218.715 321C218.715 333 214.716 326.5 233.716 328.5C244.386 329.623 246.856 336.896 246.883 343.5ZM246.883 343.5H230.716" stroke="#777785" stroke-width="5"/>
<path d="M310.166 347.577C329.666 343.577 332.297 327.348 324.166 301.077C319.5 286 309.679 279.712 301.999 272.5L292.999 284.5C300.577 293.903 310.166 298.113 310.166 307.577C310.166 319.577 314.166 313.077 295.166 315.077C284.496 316.2 282.025 323.473 281.999 330.077C281.978 335.233 283.447 339.981 283.666 341.077C284.166 343.577 290.666 351.577 310.166 347.577Z" fill="#F0F0F0"/>
<path d="M281.999 330.077C281.978 335.233 283.447 339.981 283.666 341.077C284.166 343.577 290.666 351.577 310.166 347.577C329.666 343.577 332.297 327.348 324.166 301.077C319.5 286 309.679 279.712 301.999 272.5L292.999 284.5C300.577 293.903 310.166 298.113 310.166 307.577C310.166 319.577 314.166 313.077 295.166 315.077C284.496 316.2 282.025 323.473 281.999 330.077ZM281.999 330.077H298.166" stroke="#777785" stroke-width="5"/>
<path d="M264.716 250C261.516 250 258.383 253.667 257.216 255.5C239.616 273.9 253.216 275.833 262.216 274.5C267.383 275 278.216 275.2 280.216 272C282.716 268 272.216 256 271.216 255C270.155 253.939 268.716 250 264.716 250Z" fill="#F0F0F0"/>
<path d="M264.716 250C261.516 250 258.383 253.667 257.216 255.5C239.616 273.9 253.216 275.833 262.216 274.5C267.383 275 278.216 275.2 280.216 272C282.716 268 272.216 256 271.216 255C270.155 253.939 268.716 250 264.716 250Z" fill="black" fill-opacity="0.2"/>
<path d="M264.716 250C261.516 250 258.383 253.667 257.216 255.5C239.616 273.9 253.216 275.833 262.216 274.5C267.383 275 278.216 275.2 280.216 272C282.716 268 272.216 256 271.216 255C270.155 253.939 268.716 250 264.716 250Z" stroke="#777785" stroke-width="5"/>
</g>
<circle cx="173.5" cy="305.271" r="20.8156" transform="rotate(-15.6197 173.5 305.271)" fill="#F7B777" stroke="#ED9C3F" stroke-width="3"/>
<path d="M157.74 284.955C161.521 287.11 163.954 284.899 164.698 283.524C166.163 282.687 168.17 279.993 164.472 275.916C160.775 271.839 155.141 273.374 152.787 274.652C152.862 277.188 153.958 282.799 157.74 284.955Z" fill="#88C44C" stroke="#778579" stroke-width="3"/>
<path d="M161.454 280.015C163.153 284.091 166.477 283.826 167.927 283.183C169.623 283.42 172.905 282.503 172.466 276.936C172.027 271.37 166.553 269.108 163.87 268.672C162.357 270.755 159.756 275.939 161.454 280.015Z" fill="#40C155"/>
<path d="M170.14 291.098L167.927 283.183M167.927 283.183C166.477 283.826 163.153 284.091 161.454 280.015C159.756 275.939 162.357 270.755 163.87 268.672C166.553 269.108 172.027 271.37 172.466 276.936C172.905 282.503 169.623 283.42 167.927 283.183Z" stroke="#798577" stroke-width="3"/>
<rect x="176" y="291.974" width="3.61663" height="3.61663" transform="rotate(-15.6197 176 291.974)" fill="#FFF7EE"/>
<rect x="181.852" y="295.8" width="4.36085" height="4.36085" transform="rotate(-15.6197 181.852 295.8)" fill="#FFFFFE"/>
</svg>
