<svg width="36" height="36" viewBox="0 0 36 36" fill="none" xmlns="http://www.w3.org/2000/svg">
<path d="M7.875 16.875H30.375C30.6734 16.875 30.9595 16.9935 31.1705 17.2045C31.3815 17.4155 31.5 17.7016 31.5 18C31.5 18.2984 31.3815 18.5845 31.1705 18.7955C30.9595 19.0065 30.6734 19.125 30.375 19.125H7.875C7.57663 19.125 7.29048 19.0065 7.07951 18.7955C6.86853 18.5845 6.75 18.2984 6.75 18C6.75 17.7016 6.86853 17.4155 7.07951 17.2045C7.29048 16.9935 7.57663 16.875 7.875 16.875Z" fill="#595959"/>
<path d="M8.34075 18.0004L17.6715 27.3289C17.8827 27.5402 18.0014 27.8267 18.0014 28.1254C18.0014 28.4242 17.8827 28.7107 17.6715 28.9219C17.4603 29.1332 17.1737 29.2519 16.875 29.2519C16.5763 29.2519 16.2897 29.1332 16.0785 28.9219L5.9535 18.7969C5.84873 18.6924 5.76561 18.5683 5.70889 18.4316C5.65218 18.2949 5.62299 18.1484 5.62299 18.0004C5.62299 17.8525 5.65218 17.7059 5.70889 17.5693C5.76561 17.4326 5.84873 17.3084 5.9535 17.2039L16.0785 7.07894C16.2897 6.8677 16.5763 6.74902 16.875 6.74902C17.1737 6.74902 17.4603 6.8677 17.6715 7.07894C17.8827 7.29019 18.0014 7.5767 18.0014 7.87544C18.0014 8.17419 17.8827 8.4607 17.6715 8.67194L8.34075 18.0004Z" fill="#595959"/>
</svg>
