<svg width="23" height="23" viewBox="0 0 23 23" fill="none" xmlns="http://www.w3.org/2000/svg">
<path opacity="0.5" d="M0.25 11.5C0.25 13.725 0.909801 15.9001 2.14597 17.7502C3.38213 19.6002 5.13914 21.0422 7.19481 21.8936C9.25048 22.7451 11.5125 22.9679 13.6948 22.5338C15.8771 22.0998 17.8816 21.0283 19.455 19.455C21.0283 17.8816 22.0998 15.8771 22.5338 13.6948C22.9679 11.5125 22.7451 9.25048 21.8936 7.19481C21.0422 5.13914 19.6002 3.38213 17.7502 2.14597C15.9001 0.909801 13.725 0.25 11.5 0.25C10.0226 0.25 8.55972 0.54099 7.19481 1.10636C5.8299 1.67172 4.58971 2.50039 3.54505 3.54505C1.43526 5.65483 0.25 8.51631 0.25 11.5ZM10.375 5.875C10.375 5.57663 10.4935 5.29048 10.7045 5.0795C10.9155 4.86853 11.2016 4.75 11.5 4.75C11.7984 4.75 12.0845 4.86853 12.2955 5.0795C12.5065 5.29048 12.625 5.57663 12.625 5.875V10.8497L14.9852 12.2133C15.2415 12.3635 15.428 12.609 15.5039 12.8962C15.5799 13.1834 15.5391 13.489 15.3906 13.7463C15.242 14.0036 14.9977 14.1916 14.711 14.2695C14.4243 14.3473 14.1185 14.3086 13.8602 14.1617L10.9375 12.4742C10.7665 12.3755 10.6245 12.2335 10.5257 12.0625C10.427 11.8915 10.375 11.6975 10.375 11.5V5.875Z" fill="#F24822"/>
</svg>
