<svg width="26" height="26" viewBox="0 0 26 26" fill="none" xmlns="http://www.w3.org/2000/svg">
<path d="M11.6073 13C11.6073 13.3694 11.7541 13.7237 12.0153 13.9849C12.2765 14.2461 12.6308 14.3929 13.0002 14.3929C13.3696 14.3929 13.7239 14.2461 13.9851 13.9849C14.2463 13.7237 14.393 13.3694 14.393 13C14.393 12.6306 14.2463 12.2763 13.9851 12.0151C13.7239 11.7539 13.3696 11.6071 13.0002 11.6071C12.6308 11.6071 12.2765 11.7539 12.0153 12.0151C11.7541 12.2763 11.6073 12.6306 11.6073 13V13ZM17.4109 13C17.4109 13.3694 17.5576 13.7237 17.8188 13.9849C18.0801 14.2461 18.4343 14.3929 18.8037 14.3929C19.1731 14.3929 19.5274 14.2461 19.7886 13.9849C20.0498 13.7237 20.1966 13.3694 20.1966 13C20.1966 12.6306 20.0498 12.2763 19.7886 12.0151C19.5274 11.7539 19.1731 11.6071 18.8037 11.6071C18.4343 11.6071 18.0801 11.7539 17.8188 12.0151C17.5576 12.2763 17.4109 12.6306 17.4109 13ZM5.80374 13C5.80374 13.3694 5.95048 13.7237 6.21169 13.9849C6.47291 14.2461 6.82718 14.3929 7.19659 14.3929C7.566 14.3929 7.92028 14.2461 8.18149 13.9849C8.4427 13.7237 8.58945 13.3694 8.58945 13C8.58945 12.6306 8.4427 12.2763 8.18149 12.0151C7.92028 11.7539 7.566 11.6071 7.19659 11.6071C6.82718 11.6071 6.47291 11.7539 6.21169 12.0151C5.95048 12.2763 5.80374 12.6306 5.80374 13V13ZM24.9903 7.9625C24.3345 6.40424 23.3944 5.00558 22.1959 3.80424C21.0059 2.60986 19.5931 1.66046 18.0377 1.00982C16.4417 0.339509 14.747 0 13.0002 0H12.9421C11.1836 0.00870536 9.4803 0.35692 7.87851 1.04174C6.33638 1.69906 4.93687 2.65013 3.75798 3.84196C2.57115 5.0404 1.63967 6.43326 0.995477 7.98571C0.328066 9.5933 -0.00854073 11.3025 0.000164626 13.0609C0.0100111 15.0761 0.48677 17.0616 1.39302 18.8616V23.2723C1.39302 23.6263 1.53365 23.9659 1.78398 24.2162C2.03431 24.4665 2.37383 24.6071 2.72784 24.6071H7.14146C8.94142 25.5134 10.9269 25.9902 12.9421 26H13.0031C14.7412 26 16.4272 25.6634 18.0145 25.0047C19.5621 24.3618 20.9695 23.4235 22.1582 22.2422C23.3566 21.0554 24.2997 19.6683 24.9584 18.1217C25.6432 16.5199 25.9915 14.8165 26.0002 13.058C26.0089 11.2908 25.6665 9.57589 24.9903 7.9625V7.9625ZM20.6057 20.6723C18.5716 22.6862 15.8729 23.7946 13.0002 23.7946H12.9508C11.2011 23.7859 9.46289 23.3507 7.92784 22.5324L7.68409 22.4018H3.59838V18.3161L3.4678 18.0723C2.6495 16.5373 2.21423 14.7991 2.20552 13.0493C2.19391 10.1563 3.2995 7.44018 5.32784 5.39442C7.35329 3.34866 10.0607 2.21696 12.9537 2.20536H13.0031C14.454 2.20536 15.8613 2.48683 17.1874 3.04397C18.4816 3.58661 19.6424 4.36719 20.6406 5.3654C21.6359 6.36071 22.4194 7.52433 22.962 8.81853C23.5249 10.1592 23.8064 11.581 23.8006 13.0493C23.7832 15.9395 22.6486 18.6469 20.6057 20.6723V20.6723Z" fill="#BFBFBF"/>
</svg>
