<svg width="21" height="21" viewBox="0 0 21 21" fill="none" xmlns="http://www.w3.org/2000/svg">
<path d="M6.93726 2.81055H6.74976C6.85288 2.81055 6.93726 2.72617 6.93726 2.62305V2.81055H14.0623V2.62305C14.0623 2.72617 14.1466 2.81055 14.2498 2.81055H14.0623V4.49805H15.7498V2.62305C15.7498 1.7957 15.0771 1.12305 14.2498 1.12305H6.74976C5.92241 1.12305 5.24976 1.7957 5.24976 2.62305V4.49805H6.93726V2.81055ZM18.7498 4.49805H2.24976C1.83491 4.49805 1.49976 4.8332 1.49976 5.24805V5.99805C1.49976 6.10117 1.58413 6.18555 1.68726 6.18555H3.10288L3.68179 18.4434C3.71929 19.2426 4.38023 19.873 5.17944 19.873H15.8201C16.6216 19.873 17.2802 19.2449 17.3177 18.4434L17.8966 6.18555H19.3123C19.4154 6.18555 19.4998 6.10117 19.4998 5.99805V5.24805C19.4998 4.8332 19.1646 4.49805 18.7498 4.49805ZM15.6396 18.1855H5.35991L4.79273 6.18555H16.2068L15.6396 18.1855Z" fill="#8C8C8C"/>
</svg>
