<svg width="12" height="14" viewBox="0 0 12 14" fill="none" xmlns="http://www.w3.org/2000/svg">
<path d="M3.62476 1.87305H3.49976C3.56851 1.87305 3.62476 1.8168 3.62476 1.74805V1.87305H8.37476V1.74805C8.37476 1.8168 8.43101 1.87305 8.49976 1.87305H8.37476V2.99805H9.49976V1.74805C9.49976 1.19648 9.05132 0.748047 8.49976 0.748047H3.49976C2.94819 0.748047 2.49976 1.19648 2.49976 1.74805V2.99805H3.62476V1.87305ZM11.4998 2.99805H0.499756C0.223193 2.99805 -0.000244141 3.22148 -0.000244141 3.49805V3.99805C-0.000244141 4.0668 0.0560059 4.12305 0.124756 4.12305H1.06851L1.45444 12.2949C1.47944 12.8277 1.92007 13.248 2.45288 13.248H9.54663C10.081 13.248 10.5201 12.8293 10.5451 12.2949L10.931 4.12305H11.8748C11.9435 4.12305 11.9998 4.0668 11.9998 3.99805V3.49805C11.9998 3.22148 11.7763 2.99805 11.4998 2.99805ZM9.42632 12.123H2.57319L2.19507 4.12305H9.80445L9.42632 12.123Z" fill="black" fill-opacity="0.45"/>
</svg>
