<svg width="11" height="8" viewBox="0 0 11 8" fill="none" xmlns="http://www.w3.org/2000/svg">
<path d="M0.624985 0.499703H10.375C10.4737 0.499989 10.5705 0.525121 10.6549 0.572392C10.7392 0.619664 10.8081 0.687286 10.8539 0.76798C10.8998 0.848673 10.9209 0.939384 10.9151 1.03034C10.9092 1.12131 10.8766 1.20907 10.8208 1.2842L5.94578 7.7842C5.74373 8.0537 5.25732 8.0537 5.05474 7.7842L0.179735 1.2842C0.123307 1.20923 0.0902163 1.12142 0.0840581 1.03031C0.0778999 0.939193 0.0989099 0.848264 0.144805 0.7674C0.190701 0.686535 0.259726 0.618826 0.344382 0.571631C0.429039 0.524436 0.526088 0.499559 0.624985 0.499703Z" fill="#595959"/>
</svg>
