<svg width="21" height="21" viewBox="0 0 21 21" fill="none" xmlns="http://www.w3.org/2000/svg">
<path d="M14.5833 0.125C12.8433 0.125 11.1733 1.00783 10.0833 2.40293C8.99325 1.00783 7.32325 0.125 5.58325 0.125C2.50325 0.125 0.083252 2.7626 0.083252 6.11955C0.083252 10.2394 3.48325 13.5964 8.63325 18.6972L10.0833 20.125L11.5333 18.6863C16.6833 13.5964 20.0833 10.2394 20.0833 6.11955C20.0833 2.7626 17.6633 0.125 14.5833 0.125ZM10.1833 17.0732L10.0833 17.1822L9.98325 17.0732C5.22325 12.3757 2.08325 9.26941 2.08325 6.11955C2.08325 3.93971 3.58325 2.30484 5.58325 2.30484C7.12325 2.30484 8.62325 3.38386 9.15325 4.87704H11.0233C11.5433 3.38386 13.0433 2.30484 14.5833 2.30484C16.5833 2.30484 18.0833 3.93971 18.0833 6.11955C18.0833 9.26941 14.9433 12.3757 10.1833 17.0732Z" fill="#FF5B55"/>
</svg>
