<svg width="14" height="9" viewBox="0 0 14 9" fill="none" xmlns="http://www.w3.org/2000/svg">
<path d="M13.6564 4.05285H3.04305L9.39549 0.479036C9.49707 0.421432 9.4354 0.314453 9.30116 0.314453H7.69582C7.62508 0.314453 7.55796 0.330911 7.50536 0.360301L0.650451 4.21508C0.587668 4.25035 0.537316 4.29395 0.502808 4.34294C0.468299 4.39192 0.450439 4.44514 0.450439 4.49899C0.450439 4.55283 0.468299 4.60605 0.502808 4.65503C0.537316 4.70402 0.587668 4.74762 0.650451 4.78289L7.54526 8.66118C7.57247 8.67646 7.60512 8.68469 7.63959 8.68469H9.29935C9.43358 8.68469 9.49526 8.57654 9.39367 8.52011L3.04305 4.9463H13.6564C13.7363 4.9463 13.8016 4.90398 13.8016 4.85225V4.14689C13.8016 4.09517 13.7363 4.05285 13.6564 4.05285Z" fill="black" fill-opacity="0.85"/>
</svg>
