<svg width="20" height="20" viewBox="0 0 20 20" fill="none" xmlns="http://www.w3.org/2000/svg">
<g clip-path="url(#clip0_158_1287)">
<path d="M15.8333 10.833H4.16667C3.25 10.833 2.5 11.583 2.5 12.4997V15.833C2.5 16.7497 3.25 17.4997 4.16667 17.4997H15.8333C16.75 17.4997 17.5 16.7497 17.5 15.833V12.4997C17.5 11.583 16.75 10.833 15.8333 10.833ZM15.8333 15.833H4.16667V12.4997H15.8333V15.833Z" fill="#BFBFBF"/>
<path d="M15.8333 2.5H4.16667C3.25 2.5 2.5 3.25 2.5 4.16667V7.5C2.5 8.41667 3.25 9.16667 4.16667 9.16667H15.8333C16.75 9.16667 17.5 8.41667 17.5 7.5V4.16667C17.5 3.25 16.75 2.5 15.8333 2.5ZM15.8333 7.5H4.16667V4.16667H15.8333V7.5Z" fill="#BFBFBF"/>
</g>
<defs>
<clipPath id="clip0_158_1287">
<rect width="20" height="20" fill="white"/>
</clipPath>
</defs>
</svg>
