<svg width="14" height="10" viewBox="0 0 14 10" fill="none" xmlns="http://www.w3.org/2000/svg">
<path d="M13.5 0.1875H0.5C0.223437 0.1875 0 0.383008 0 0.625V9.375C0 9.61699 0.223437 9.8125 0.5 9.8125H13.5C13.7766 9.8125 14 9.61699 14 9.375V0.625C14 0.383008 13.7766 0.1875 13.5 0.1875ZM12.875 8.82813H1.125V8.28262L3.28906 6.03633L5.63438 8.46992L9.28281 4.68555L12.875 8.4125V8.82813ZM12.875 7.05352L9.37813 3.425C9.32813 3.37305 9.2375 3.37305 9.1875 3.425L5.63438 7.11094L3.38438 4.77715C3.33438 4.7252 3.24375 4.7252 3.19375 4.77715L1.125 6.92363V1.17188H12.875V7.05352Z" fill="#F5F5F5"/>
<path d="M3.75 4.23438C3.93057 4.23438 4.10937 4.20326 4.27619 4.14279C4.44301 4.08233 4.59459 3.99371 4.72227 3.88199C4.84995 3.77027 4.95123 3.63764 5.02033 3.49167C5.08943 3.3457 5.125 3.18925 5.125 3.03125C5.125 2.87325 5.08943 2.7168 5.02033 2.57083C4.95123 2.42486 4.84995 2.29223 4.72227 2.18051C4.59459 2.06879 4.44301 1.98017 4.27619 1.91971C4.10937 1.85924 3.93057 1.82813 3.75 1.82813C3.38533 1.82813 3.03559 1.95488 2.77773 2.18051C2.51987 2.40614 2.375 2.71216 2.375 3.03125C2.375 3.35034 2.51987 3.65636 2.77773 3.88199C3.03559 4.10762 3.38533 4.23438 3.75 4.23438ZM3.75 2.64844C3.99219 2.64844 4.1875 2.81934 4.1875 3.03125C4.1875 3.24316 3.99219 3.41406 3.75 3.41406C3.50781 3.41406 3.3125 3.24316 3.3125 3.03125C3.3125 2.81934 3.50781 2.64844 3.75 2.64844Z" fill="#F5F5F5"/>
</svg>
