<svg width="23" height="27" viewBox="0 0 23 27" fill="none" xmlns="http://www.w3.org/2000/svg">
<path d="M18.23 24.6815L21.3233 12.369C21.3717 12.1761 21.3798 11.9732 21.3467 11.7763C21.3137 11.5793 21.2406 11.3937 21.133 11.2339C21.0254 11.0741 20.8864 10.9446 20.7268 10.8555C20.5672 10.7664 20.3914 10.7202 20.2133 10.7204H13.6005C13.5057 10.7204 13.4121 10.6963 13.3267 10.65C13.2414 10.6037 13.1664 10.5363 13.1073 10.4528C13.0483 10.3693 13.0068 10.272 12.9859 10.168C12.965 10.0639 12.9652 9.95596 12.9865 9.85204L13.2745 8.44971C13.5383 7.16338 13.623 5.83816 13.5256 4.52267L13.4726 3.8079C13.4159 3.04108 13.1193 2.32173 12.6357 1.77763C12.1931 1.28007 11.5932 1.00039 10.9675 1H10.8293C10.4508 1 10.1023 1.2307 9.91915 1.60266L8.3875 4.70347C7.70092 6.09419 6.67736 7.23693 5.43596 7.99868L1.60022 10.351C1.41836 10.4627 1.26664 10.6274 1.16101 10.8279C1.05538 11.0284 0.999755 11.2572 1 11.4902V24.3289C1 24.6727 1.12138 25.0023 1.33743 25.2454C1.55348 25.4885 1.84651 25.625 2.15205 25.625H17.1212C17.372 25.6249 17.616 25.5327 17.816 25.3624C18.016 25.1921 18.1618 24.953 18.23 24.6815Z" stroke="#BFBFBF" stroke-width="2" stroke-linecap="round" stroke-linejoin="round"/>
</svg>
