<svg width="24" height="24" viewBox="0 0 24 24" fill="none" xmlns="http://www.w3.org/2000/svg">
<path d="M20.2361 12.0567L19.5301 16.1367L21.0091 16.3927L21.7141 12.3127L20.2361 12.0567ZM13.2451 21.2497H8.59609V22.7497H13.2451V21.2497ZM7.68509 20.4127L6.87309 11.0197L5.37809 11.1487L6.19109 20.5417L7.68509 20.4127ZM19.5301 16.1367C19.0231 19.0667 16.3811 21.2497 13.2451 21.2497V22.7497C17.0711 22.7497 20.3711 20.0807 21.0091 16.3927L19.5301 16.1367ZM13.2551 5.09972L12.5921 9.14472L14.0721 9.38672L14.7351 5.34272L13.2551 5.09972ZM7.18809 10.2457L8.62709 9.00572L7.64709 7.86972L6.21009 9.10972L7.18809 10.2457ZM11.2441 4.97172L11.7201 3.13772L10.2681 2.76172L9.79209 4.59472L11.2441 4.97172ZM12.4381 2.77772L12.5831 2.82472L13.0421 1.39672L12.8971 1.34972L12.4381 2.77772ZM10.5231 6.81572C10.8353 6.23163 11.0773 5.61266 11.2441 4.97172L9.79209 4.59472C9.65429 5.12101 9.45562 5.62944 9.20009 6.10972L10.5231 6.81572ZM12.5831 2.82472C12.7256 2.86838 12.8548 2.94711 12.9589 3.05368C13.063 3.16026 13.1387 3.29128 13.1791 3.43472L14.6311 3.05872C14.5281 2.66991 14.3282 2.31354 14.0502 2.0229C13.7721 1.73225 13.426 1.51682 13.0421 1.39672L12.5831 2.82472ZM11.7201 3.13772C11.7397 3.06555 11.775 2.99858 11.8233 2.94155C11.8717 2.88452 11.9321 2.83883 12.0001 2.80772L11.3491 1.45672C10.8171 1.71272 10.4171 2.18672 10.2681 2.76172L11.7201 3.13772ZM12.0001 2.80772C12.1371 2.74275 12.2935 2.73203 12.4381 2.77772L12.8971 1.34972C12.3863 1.18645 11.8325 1.22473 11.3491 1.45672L12.0001 2.80772ZM14.1541 10.9837H19.3341V9.48372H14.1541V10.9837ZM14.7351 5.34272C14.8608 4.58251 14.8254 3.80436 14.6311 3.05872L13.1791 3.43572C13.3209 3.97891 13.3468 4.54587 13.2551 5.09972L14.7351 5.34272ZM8.59609 21.2497C8.3671 21.2493 8.14656 21.1632 7.97794 21.0082C7.80932 20.8533 7.70483 20.6409 7.68509 20.4127L6.19109 20.5417C6.24312 21.1439 6.51897 21.7047 6.96419 22.1134C7.40942 22.5222 7.99168 22.7492 8.59609 22.7497V21.2497ZM8.62709 9.00572C9.30709 8.41972 10.0391 7.72272 10.5241 6.81572L9.20009 6.10972C8.85409 6.75872 8.30209 7.30572 7.64709 7.86972L8.62709 9.00572ZM21.7141 12.3127C21.7743 11.9657 21.7579 11.6097 21.6661 11.2697C21.5742 10.9297 21.4092 10.6139 21.1824 10.3444C20.9557 10.0749 20.6728 9.85819 20.3535 9.70952C20.0342 9.56085 19.6863 9.48378 19.3341 9.48372V10.9837C19.9011 10.9837 20.3341 11.4957 20.2361 12.0567L21.7141 12.3127ZM12.5921 9.14472C12.5548 9.3713 12.5673 9.60328 12.6286 9.82456C12.6899 10.0458 12.7987 10.2511 12.9473 10.4262C13.0959 10.6012 13.2808 10.7419 13.4892 10.8383C13.6976 10.9348 13.9245 10.9837 14.1541 10.9837V9.48372C14.1419 9.48378 14.1298 9.48214 14.1188 9.477C14.1077 9.47186 14.0979 9.46434 14.0901 9.45498C14.0822 9.44563 14.0766 9.43466 14.0735 9.42286C14.0703 9.41106 14.0699 9.39872 14.0721 9.38672L12.5921 9.14472ZM6.87309 11.0197C6.86089 10.8749 6.88216 10.7293 6.93709 10.5948C6.99202 10.4602 7.07803 10.3406 7.18809 10.2457L6.20809 9.10872C5.91823 9.35886 5.69186 9.6742 5.54757 10.0288C5.40328 10.3835 5.3452 10.7673 5.37809 11.1487L6.87309 11.0197Z" fill="#1E1E1E"/>
<path opacity="0.5" d="M3 10.2353L3.747 10.1713C3.72978 9.97924 3.63924 9.80117 3.49416 9.6741C3.34909 9.54703 3.16064 9.48073 2.96796 9.48897C2.77528 9.4972 2.59318 9.57935 2.45948 9.71834C2.32578 9.85733 2.25076 10.0425 2.25 10.2353H3ZM4.719 21.4073L3.747 10.1713L2.253 10.2993L3.224 21.5363L4.719 21.4073ZM3.75 21.5143V10.2343L2.25 10.2353V21.5133L3.75 21.5143ZM3.224 21.5363C3.22095 21.5 3.22549 21.4634 3.23733 21.4289C3.24918 21.3944 3.26807 21.3628 3.2928 21.336C3.31753 21.3092 3.34757 21.2878 3.381 21.2732C3.41443 21.2587 3.45053 21.2512 3.487 21.2513V22.7513C4.213 22.7513 4.781 22.1293 4.719 21.4073L3.224 21.5363ZM3.487 21.2513C3.633 21.2513 3.75 21.3703 3.75 21.5143L2.25 21.5133C2.25 22.1953 2.803 22.7513 3.487 22.7513V21.2513Z" fill="#1E1E1E"/>
</svg>
