<svg width="24" height="32" viewBox="0 0 24 32" fill="none" xmlns="http://www.w3.org/2000/svg">
<path d="M12.0001 0.166748C5.87258 0.166748 0.916748 5.12258 0.916748 11.2501C0.916748 19.5626 12.0001 31.8334 12.0001 31.8334C12.0001 31.8334 23.0834 19.5626 23.0834 11.2501C23.0834 5.12258 18.1276 0.166748 12.0001 0.166748ZM12.0001 15.2084C10.9503 15.2084 9.94345 14.7914 9.20112 14.049C8.45879 13.3067 8.04175 12.2999 8.04175 11.2501C8.04175 10.2003 8.45879 9.19345 9.20112 8.45112C9.94345 7.70879 10.9503 7.29175 12.0001 7.29175C13.0499 7.29175 14.0567 7.70879 14.799 8.45112C15.5414 9.19345 15.9584 10.2003 15.9584 11.2501C15.9584 12.2999 15.5414 13.3067 14.799 14.049C14.0567 14.7914 13.0499 15.2084 12.0001 15.2084Z" fill="#FBBF24"/>
</svg>
