<svg width="30" height="24" viewBox="0 0 30 24" fill="none" xmlns="http://www.w3.org/2000/svg">
<path d="M7.67627 0.855467C7.42431 1.10742 7.60595 1.79297 8.03369 2.20898L8.32666 2.49609L7.86963 3.26367C7.20166 4.40625 7.06103 4.51758 5.73681 4.95703C5.03955 5.18554 3.28174 5.64258 2.53174 5.7832C2.04541 5.87695 1.87549 6.01172 1.87549 6.30469C1.87549 6.55078 1.99853 6.6914 2.34424 6.83203C2.48486 6.89062 2.57861 7.01367 2.76025 7.38281C3.06494 7.98633 3.30517 8.31445 3.77392 8.74805C4.23095 9.18164 4.86377 9.58008 5.46728 9.82031C5.94189 10.0078 6.72119 10.2305 6.93799 10.2305C7.04345 10.2363 7.03174 10.2656 6.83838 10.4297C6.53369 10.6992 5.93017 11.0098 5.35595 11.1855C4.49463 11.4551 3.93213 11.5312 2.43213 11.5605L1.03174 11.5957L0.867673 11.7598C0.545407 12.0762 0.686032 12.5566 1.15478 12.7734C1.33056 12.8496 1.40674 12.9375 1.5122 13.1895C2.05713 14.4375 3.34619 15.7734 4.61767 16.4004L5.09814 16.6406V17.8301V19.0195H3.20556C1.58838 19.0195 1.29541 19.0312 1.18408 19.1133C1.03174 19.2187 1.0083 19.4941 1.14306 19.6289C1.21924 19.6992 1.23095 19.9512 1.23095 21.1523V22.5937H0.850094C0.51611 22.5937 0.445798 22.6113 0.316891 22.7402C0.158688 22.8984 0.164548 23.0859 0.340329 23.2266C0.475094 23.332 29.5259 23.332 29.6606 23.2266C29.8364 23.0859 29.8423 22.8984 29.6841 22.7402C29.5552 22.6113 29.4849 22.5937 29.1216 22.5937H28.7114V21.1699C28.7114 19.8164 28.7173 19.7344 28.8286 19.6348C28.9634 19.5117 28.981 19.3242 28.8638 19.1602C28.7817 19.0547 28.6821 19.0488 26.8423 19.0312L24.9028 19.0137V17.8301V16.6465L25.4067 16.3887C26.7017 15.7266 27.8911 14.502 28.4536 13.2539C28.5942 12.9434 28.6645 12.8555 28.8462 12.7734C29.3032 12.5625 29.4438 12.1055 29.1567 11.7715L29.0161 11.6074L27.6157 11.5723C26.1274 11.5312 25.4829 11.4492 24.645 11.1914C24.0005 10.9863 23.0278 10.4473 23.0278 10.2891C23.0278 10.2656 23.1392 10.2305 23.2798 10.207C23.6782 10.1426 24.727 9.77344 25.1372 9.55078C26.104 9.02344 26.8071 8.30273 27.2524 7.38281C27.4341 7.00781 27.522 6.88476 27.6626 6.83203C27.9966 6.6914 28.1255 6.55078 28.1255 6.31054C28.1255 6.16406 28.0845 6.05273 28.0083 5.98242C27.938 5.91797 27.4751 5.7832 26.7954 5.63086C25.1079 5.24414 23.854 4.86914 23.2505 4.57031C22.852 4.37109 22.6235 4.10156 22.1255 3.25195L21.6743 2.49023L21.9614 2.21484C22.4009 1.78711 22.5825 1.11328 22.3247 0.855467C22.0786 0.609373 21.8091 0.755857 21.7329 1.17773C21.6099 1.8457 21.3638 1.95703 19.8696 2.04492C18.4575 2.12109 11.5435 2.12109 10.1313 2.04492C8.6372 1.95703 8.35009 1.82226 8.27392 1.17187C8.23291 0.773436 7.92236 0.609373 7.67627 0.855467ZM13.5063 2.83008C14.772 2.84765 16.6528 2.83594 18.1997 2.78906C19.6235 2.7539 20.8423 2.73633 20.9126 2.75976C20.9946 2.7832 21.2114 3.09375 21.5337 3.63281C22.0786 4.55273 22.3892 4.91015 22.8989 5.17969C23.3677 5.43164 24.4517 5.77734 25.77 6.10547L26.9009 6.38672L26.5903 6.49804C25.3071 6.93164 23.4497 7.18945 20.6841 7.30078C18.8267 7.37695 11.1157 7.37695 9.2583 7.30078C6.56884 7.18945 4.68799 6.93164 3.41064 6.49804L3.10009 6.38672L4.23095 6.11133C5.52588 5.78906 6.62158 5.4375 7.10205 5.17969C7.61181 4.91015 7.92236 4.55273 8.46728 3.63867C8.74267 3.17578 8.99463 2.7832 9.03564 2.76562C9.07666 2.74804 9.62744 2.74219 10.2544 2.75976C10.8813 2.77734 12.3462 2.80664 13.5063 2.83008ZM26.5083 7.3125C26.1099 7.99219 25.4536 8.60156 24.6978 8.98242C24.3696 9.15234 23.5142 9.44531 23.2212 9.49805L22.9692 9.53906V8.71289V7.89258L23.1626 7.86328C23.2622 7.8457 23.602 7.80469 23.9067 7.76953C24.4517 7.70508 25.9927 7.41211 26.3384 7.30664C26.438 7.27734 26.52 7.24804 26.5317 7.24804C26.5435 7.24219 26.5317 7.27734 26.5083 7.3125ZM4.68799 7.53516C5.15674 7.62891 5.81299 7.74023 6.15283 7.77539C7.14306 7.875 7.03174 7.75781 7.03174 8.71289V9.53906L6.81494 9.49805C6.37549 9.42187 5.53174 9.10547 5.09814 8.86523C4.62939 8.60156 3.80908 7.83984 3.60986 7.48242L3.49853 7.2832L3.66845 7.31836C3.7622 7.3418 4.21924 7.43555 4.68799 7.53516ZM22.2661 9.01172V10.0547H20.0981H17.9302V9.36914C17.9302 8.63672 17.8716 8.47266 17.6138 8.47266C17.3091 8.47851 17.227 8.68359 17.227 9.43359V10.0547H14.9712H12.7153V9.35742C12.7153 8.69531 12.7095 8.64844 12.5864 8.56641C12.4106 8.44336 12.27 8.44922 12.1294 8.58984C12.0239 8.69531 12.0122 8.7832 12.0122 9.38086V10.0547H9.87353H7.73486V9.01172V7.97461H15.0005H22.2661V9.01172ZM22.7642 11.0215C23.2622 11.3906 23.6782 11.6016 24.3813 11.8359C25.2251 12.1172 25.9341 12.2227 27.1235 12.2637C28.3013 12.3047 28.3071 12.334 27.1821 12.627C24.9321 13.2187 22.2017 13.4355 16.436 13.4941C10.6821 13.5469 7.08447 13.3887 4.39502 12.9551C3.4458 12.7969 2.25634 12.5098 1.99853 12.3691C1.85791 12.293 1.91064 12.2871 2.54931 12.2812C4.53564 12.2754 6.13525 11.8418 7.23681 11.0215L7.58838 10.7578H15.0005H22.4126L22.7642 11.0215ZM4.16064 13.623C6.5747 14.0273 9.9497 14.2148 15.0005 14.2148C20.9536 14.2148 24.686 13.9512 27.1177 13.3652C27.4106 13.2949 27.6567 13.248 27.6567 13.2656C27.6567 13.2773 27.5337 13.4766 27.3813 13.7109C26.8481 14.5078 25.9458 15.334 25.1548 15.7324L24.9028 15.8555V15.709C24.9028 15.627 24.8384 15.4922 24.7563 15.416L24.6157 15.2695H15.0005H5.38525L5.24463 15.416C5.16259 15.4922 5.09814 15.627 5.09814 15.709V15.8555L4.85205 15.7324C4.05517 15.3281 3.10595 14.4668 2.60791 13.6875C2.46142 13.4707 2.34424 13.2773 2.34424 13.2598C2.34424 13.248 2.59033 13.2949 2.88916 13.3652C3.18213 13.4355 3.75634 13.5527 4.16064 13.623ZM24.188 16.3652L24.2056 16.7344H15.0005H5.80127V16.3945C5.80127 16.207 5.81884 16.0312 5.84228 16.0137C5.85986 15.9902 9.99658 15.9785 15.0239 15.9844L24.1704 16.002L24.188 16.3652ZM6.97314 18.2285V19.0195H6.3872H5.80127V18.2285V17.4375H6.3872H6.97314V18.2285ZM9.55127 18.2285V19.0195H8.61377H7.67627V18.2695C7.67627 17.8535 7.69384 17.4961 7.71728 17.4785C7.73486 17.4551 8.15674 17.4375 8.65478 17.4375H9.55127V18.2285ZM11.4849 18.4629C11.4849 19.3359 11.4731 19.4883 11.397 19.4883C11.3267 19.4883 11.3091 19.4121 11.3091 19.1426C11.3091 18.7441 11.2329 18.6504 10.9458 18.6797C10.8052 18.6914 10.7349 18.7383 10.6763 18.8555C10.6177 18.9785 10.5591 19.0195 10.4243 19.0195H10.2544V18.2285V17.4375H10.8696H11.4849V18.4629ZM13.3599 18.4629V19.4883H12.7739H12.188V18.4629V17.4375H12.7739H13.3599V18.4629ZM15.938 18.4629V19.4883H15.0005H14.063V18.4629V17.4375H15.0005H15.938V18.4629ZM17.813 18.4629V19.4883H17.227H16.6411V18.4629V17.4375H17.227H17.813V18.4629ZM19.7466 18.2285V19.0195H19.5415C19.4243 19.0195 19.3364 18.9902 19.3364 18.9492C19.3364 18.8203 19.1431 18.668 18.979 18.668C18.7388 18.668 18.6099 18.8906 18.6509 19.2246C18.6802 19.4355 18.6743 19.4883 18.604 19.4883C18.5278 19.4883 18.5161 19.3301 18.5161 18.4629V17.4375H19.1313H19.7466V18.2285ZM22.2661 18.2285V19.0195H21.3579H20.4497V18.2285V17.4375H21.3579H22.2661V18.2285ZM24.1997 18.2285V19.0195H23.5845H22.9692V18.2285V17.4375H23.5845H24.1997V18.2285ZM10.5474 19.9102C10.5474 20.0156 10.5063 20.666 10.4478 21.3457L10.354 22.5937H6.14111H1.93408V21.1992C1.93408 20.4316 1.95166 19.7812 1.97509 19.7637C1.99267 19.7402 3.93213 19.7227 6.28174 19.7227H10.5474V19.9102ZM28.0083 21.1582V22.5937H23.8247H19.6353L19.606 22.2832C19.5884 22.1191 19.5474 21.6094 19.5122 21.1582C19.477 20.707 19.436 20.1973 19.4185 20.0273L19.3892 19.7227H23.6958H28.0083V21.1582ZM18.7505 20.3379V20.4844H15.0005H11.2505V20.3379V20.1914H15.0005H18.7505V20.3379ZM18.8091 21.3633V21.5391H14.9712H11.1333V21.4043C11.1333 21.3281 11.1509 21.2461 11.1743 21.2285C11.1919 21.2051 12.9204 21.1875 15.0122 21.1875H18.8091V21.3633ZM18.9145 22.4297L18.9321 22.5937H15.0063H11.0747V22.418V22.2422L14.9888 22.2539L18.897 22.2715L18.9145 22.4297Z" fill="black"/>
</svg>
