<svg width="24" height="30" viewBox="0 0 24 30" fill="none" xmlns="http://www.w3.org/2000/svg">
<path d="M11.7539 0.761717C11.4434 0.925779 11.1562 1.10742 11.1211 1.16601C11.0918 1.23047 11.0625 1.46484 11.0625 1.6875V2.09179L10.5527 2.43164L10.0371 2.77148L9.1582 2.55469C8.31445 2.34961 8.23828 2.34375 7.26562 2.34375H6.25781L5.20312 2.87109L4.14844 3.39844L3.70312 4.29492C3.45703 4.78125 3.24609 5.19726 3.24023 5.20312C3.22852 5.21484 2.8125 5.32617 2.32031 5.44922C1.64648 5.61914 1.40039 5.70703 1.32422 5.80664C1.23633 5.91211 1.21875 6.05859 1.21875 6.77929C1.21875 7.24219 1.24219 7.66992 1.27148 7.72851C1.30664 7.78711 1.64648 8.03906 2.02734 8.29101L2.73047 8.7539L3.14648 9.59179C3.52148 10.3535 3.5625 10.4648 3.5625 10.7812C3.5625 10.9746 3.55664 11.1328 3.54492 11.1328C3.5332 11.1328 3.10547 11.0508 2.5957 10.9512C2.08594 10.8574 1.60547 10.7871 1.5293 10.8105C1.36523 10.8516 0.28125 12.4395 0.28125 12.6445C0.28125 12.8789 0.375 12.9785 1.03711 13.418L1.6875 13.8457V14.7129V15.5859L2.15625 16.5234L2.625 17.4609V17.959V18.4629L2.88867 18.7441L3.14648 19.0195L2.74805 19.1484C2.41406 19.2598 2.29688 19.3359 2.01562 19.623C1.54102 20.127 1.55859 20.3145 2.11523 20.6953L2.47266 20.9414L2.27344 21.0176C1.78711 21.1992 1.79297 21.1934 1.5 22.0312L1.22461 22.8223V23.6777C1.21875 24.416 1.23633 24.5566 1.32422 24.6621C1.38281 24.7324 1.66406 24.8672 2.00977 24.9785C2.47852 25.1367 2.60156 25.2012 2.61328 25.2949C2.63086 25.4062 2.55469 25.4355 1.82227 25.6113C0.925781 25.834 0.75 25.9395 0.75 26.2559C0.75 26.4082 0.832031 26.5254 1.21875 26.918L1.6875 27.3984V27.8613V28.3242L2.29102 28.9277C2.80664 29.4434 2.92383 29.5312 3.08203 29.5312C3.35742 29.5312 3.52734 29.332 3.61523 28.916L3.69141 28.5645L4.41211 28.5879C5.34961 28.6113 5.33789 28.623 5.60742 27.5273L5.80078 26.7187H6.41602H7.02539L7.33008 26.4316C7.5 26.2734 7.83398 26.0508 8.07422 25.9277C8.39062 25.7754 8.64258 25.582 8.98242 25.248C9.39844 24.8437 9.50391 24.7734 9.88477 24.6387C10.125 24.5566 10.3359 24.5098 10.3535 24.5273C10.3711 24.5449 10.4648 24.709 10.5645 24.8906L10.7402 25.2246L11.5312 25.5C12.4219 25.8047 12.5742 25.8281 12.7676 25.6699C12.8848 25.5762 12.9141 25.4883 12.9375 25.1309L12.9668 24.709L13.5527 24.5098C14.1445 24.3164 14.3438 24.1758 14.3438 23.959C14.3438 23.8594 14.4023 23.8828 14.7363 24.1113L15.1348 24.375H15.7734H16.4121L17.2207 23.5723L18.0352 22.7695L18.2695 22.0605C18.4688 21.4629 18.5449 21.3105 18.7383 21.123C18.9375 20.9297 19.0078 20.7832 19.2363 20.1035C19.4355 19.4941 19.5 19.2187 19.5 18.9258L19.5059 18.5449L19.9277 18.2754C21.1289 17.502 22.1895 16.2949 22.834 14.9883C23.1855 14.2676 23.373 13.7168 23.5488 12.8906C23.7363 12.0293 23.7422 10.4414 23.5547 9.59765C23.2734 8.32031 22.7695 7.19531 22.0195 6.19922C20.748 4.51172 18.9023 3.35742 16.8164 2.95312C16.3066 2.85351 14.9766 2.8125 14.2617 2.87109C13.9277 2.90039 13.9102 2.89453 13.875 2.7539C13.7871 2.44336 12.8145 0.585936 12.709 0.527342C12.5098 0.421873 12.3398 0.468748 11.7539 0.761717ZM12.6445 2.34375C12.8496 2.75976 13.0078 3.11133 12.9961 3.12304C12.9785 3.13476 12.75 3.21679 12.4863 3.30469C9.74414 4.21289 7.57617 6.73242 6.97852 9.70898C6.83789 10.4238 6.83789 12.0762 6.97852 12.791C7.61719 15.9668 9.99023 18.5625 12.9844 19.3594L13.4824 19.4883L14.2207 20.9531C15.0176 22.5293 15.0703 22.5937 15.4395 22.4648C15.5801 22.418 15.7148 22.1895 16.3418 20.9531L17.0801 19.4941L17.543 19.3594C17.7949 19.2891 18.123 19.1836 18.2637 19.1367C18.4043 19.084 18.5332 19.0547 18.5508 19.0664C18.5625 19.084 18.4805 19.3828 18.3633 19.7344C18.1875 20.2559 18.1055 20.4082 17.918 20.5957C17.7246 20.7832 17.6484 20.9355 17.4492 21.5332L17.2148 22.2422L16.6113 22.8398L16.0137 23.4375H15.7207C15.4512 23.4375 15.3691 23.3965 14.7246 22.9687C13.9805 22.4707 13.8105 22.418 13.5762 22.6113C13.459 22.7051 13.4297 22.793 13.4062 23.1504L13.377 23.5723L12.791 23.7715C12.1348 23.9883 12 24.0996 12 24.4336V24.6621L11.7012 24.5566C11.4141 24.4629 11.3906 24.4395 11.1562 23.9941C10.8223 23.3437 10.8047 23.3437 9.75586 23.6895L8.92383 23.9648L8.45508 24.4395C8.0918 24.8027 7.86914 24.9727 7.48828 25.166C7.21289 25.3066 6.91406 25.5 6.82031 25.5996L6.64453 25.7812H5.95312C5.05078 25.7812 5.0625 25.7695 4.79883 26.8477C4.61719 27.6035 4.59375 27.6562 4.46484 27.6562C4.35352 27.6562 4.28906 27.5801 4.11914 27.2461C3.9082 26.8242 3.79102 26.7187 3.5332 26.7187C3.27539 26.7187 3.13477 26.9297 2.98242 27.5566C2.85352 28.1133 2.8418 28.1309 2.73633 28.0312C2.64258 27.9492 2.625 27.8496 2.625 27.4687C2.625 27.0117 2.625 27.0059 2.39062 26.7539L2.15039 26.4961L2.72461 26.3613C3.5332 26.168 3.5625 26.1328 3.5625 25.3242C3.5625 24.7969 3.54492 24.6562 3.45703 24.5566C3.39844 24.4863 3.11719 24.3516 2.77148 24.2402L2.18555 24.041L2.16797 23.5781C2.15039 23.1855 2.17383 23.0273 2.33789 22.5234L2.52539 21.9316L3.1875 21.7148C3.87891 21.4863 4.03125 21.3809 4.03125 21.1055C4.03125 20.877 3.9375 20.7715 3.44531 20.4492C3.1875 20.2793 2.97656 20.127 2.97656 20.1035C2.97656 20.0801 3.28125 19.9629 3.65039 19.8457C4.36523 19.6055 4.5 19.5059 4.5 19.2012C4.5 19.0664 4.40039 18.9258 4.03125 18.5508L3.5625 18.0703V17.6484C3.5625 17.2383 3.55078 17.1973 3.09375 16.2891L2.625 15.3516V14.4082C2.625 13.8926 2.60156 13.4238 2.57227 13.3652C2.53711 13.3066 2.26172 13.0957 1.95703 12.8965L1.40039 12.5273L1.64062 12.1641C1.77539 11.9707 1.88672 11.8008 1.89844 11.7891C1.9043 11.7773 2.37891 11.8652 2.95898 11.9766C3.5332 12.0937 4.04883 12.1875 4.10742 12.1875C4.16602 12.1875 4.27734 12.123 4.35352 12.041C4.49414 11.9062 4.5 11.877 4.5 11.0449V10.1953L3.97852 9.15234L3.45703 8.10937L2.80664 7.68164L2.15625 7.24804V6.85547V6.45703L2.92969 6.26953C3.35742 6.16406 3.75586 6.05273 3.81445 6.02344C3.86719 5.99414 4.125 5.54883 4.38281 5.03906L4.85156 4.10156L5.67188 3.6914L6.49219 3.28125H7.3418C8.14453 3.28125 8.25586 3.29297 9.12891 3.51562C9.64453 3.64453 10.1074 3.75 10.166 3.75C10.2949 3.75 11.8711 2.70703 11.9473 2.57226C11.9766 2.51367 12 2.29687 12 2.08594C12 1.78711 12.0234 1.69336 12.1055 1.64648C12.1582 1.61133 12.2168 1.58203 12.2344 1.58203C12.252 1.58203 12.4395 1.92187 12.6445 2.34375ZM16.8633 3.91992C19.0723 4.42383 20.9121 5.83008 21.9199 7.77539C22.8516 9.58594 23.0273 11.6895 22.4004 13.5762C22.0078 14.7539 21.4629 15.6328 20.5605 16.5293C19.6172 17.4785 18.5684 18.0996 17.3848 18.4277C16.3418 18.7148 16.4941 18.5801 15.8672 19.8164C15.5625 20.4258 15.2988 20.918 15.2812 20.918C15.2637 20.918 15.0117 20.4375 14.7246 19.8574C14.4316 19.2715 14.1445 18.7617 14.0801 18.7207C14.0156 18.6797 13.6992 18.5742 13.3828 18.4922C12.0703 18.1465 10.9805 17.5137 10.002 16.5293C8.91211 15.4453 8.24414 14.2207 7.92188 12.7148C7.76953 12.0176 7.76953 10.4824 7.92188 9.78515C8.41406 7.49414 9.83789 5.61914 11.8594 4.58789C12.6797 4.17187 13.4355 3.93164 14.4316 3.78515C14.8535 3.7207 16.377 3.80859 16.8633 3.91992Z" fill="black"/>
<path d="M14.2262 4.77542C12.609 5.03324 11.0505 5.97074 10.0602 7.27738C7.15397 11.1387 9.22233 16.6407 13.9626 17.6719C14.9938 17.8946 16.2712 17.8243 17.3258 17.4785C18.3395 17.1504 19.488 16.4004 20.1618 15.627C22.4821 12.961 22.3766 9.08792 19.9098 6.62113C18.4098 5.12113 16.3239 4.4473 14.2262 4.77542ZM16.6579 5.80082C17.7301 6.08792 18.445 6.50394 19.236 7.29496C20.0329 8.09769 20.443 8.81253 20.736 9.90238C20.9118 10.5469 20.9294 11.877 20.7712 12.5039C20.4958 13.5938 20.0387 14.4024 19.236 15.2051C18.1872 16.2481 17.0505 16.7696 15.6032 16.8516C13.236 16.9922 10.9977 15.586 10.0778 13.3887C9.78483 12.6739 9.68522 12.1465 9.69108 11.25C9.69108 10.3125 9.76725 9.90824 10.0719 9.14652C10.5934 7.83988 11.7653 6.63871 13.0368 6.09964C13.904 5.7305 14.4958 5.62503 15.486 5.65433C15.9606 5.66605 16.3415 5.71878 16.6579 5.80082Z" fill="black"/>
<path d="M11.3672 8.90037L10.6582 10.0722L11.0508 10.3066C11.3555 10.4941 11.4551 10.5293 11.5078 10.4707C11.543 10.4355 11.8301 9.96678 12.1465 9.43357C12.4629 8.90037 12.7617 8.40818 12.8027 8.34373C12.8789 8.22654 12.8672 8.20897 12.6035 8.05662C12.4512 7.96287 12.2695 7.8574 12.1992 7.81053C12.082 7.73436 12.0469 7.78123 11.3672 8.90037Z" fill="black"/>
<path d="M18.082 7.97464L17.6895 8.21487L17.959 8.66018C18.1113 8.90628 18.2402 9.12307 18.2461 9.12893C18.2695 9.16409 19.0312 8.70706 19.0312 8.66018C19.0312 8.61917 18.5039 7.7344 18.4863 7.7344C18.4805 7.74026 18.2988 7.84573 18.082 7.97464Z" fill="black"/>
<path d="M14.5838 8.53114C13.1014 8.92958 12.1815 10.4706 12.5565 11.9237C12.9491 13.4237 14.4842 14.3554 15.9549 13.9745C17.3436 13.6112 18.2576 12.2694 18.0526 10.8749C17.8182 9.21669 16.1659 8.10341 14.5838 8.53114ZM16.078 9.57411C16.4412 9.76161 16.5877 9.8788 16.7752 10.1308C16.9686 10.4003 16.9627 10.4296 16.7049 10.3593C16.4061 10.2772 15.8846 10.33 15.5682 10.4765C15.4276 10.535 15.158 10.7225 14.9705 10.8866C14.4725 11.3319 13.9979 11.3612 13.617 10.9628L13.453 10.7929L13.5994 10.4706C13.8221 9.98427 14.2557 9.60927 14.8123 9.42763C15.0936 9.33388 15.7733 9.41005 16.078 9.57411ZM16.6463 11.3319C16.7518 11.3729 16.8983 11.4784 16.9744 11.5604L17.1092 11.7128L16.9627 12.0292C16.7811 12.4335 16.4647 12.7499 16.0487 12.9433C15.5799 13.16 14.9119 13.16 14.4901 12.9315C14.1209 12.7382 13.9744 12.621 13.7869 12.369C13.5936 12.0995 13.5994 12.0702 13.8631 12.1405C14.1502 12.2225 14.6776 12.1698 14.994 12.0292C15.1346 11.9647 15.3866 11.789 15.5506 11.6425C15.9901 11.244 16.2596 11.1679 16.6463 11.3319Z" fill="black"/>
<path d="M18.9783 9.34569C18.8083 9.45115 18.6443 9.56248 18.6091 9.59764C18.5505 9.65623 19.0662 10.5644 19.1365 10.5293C19.1599 10.5176 19.3415 10.4121 19.5408 10.289L19.904 10.0722L19.6287 9.60936C19.4763 9.35154 19.3415 9.14647 19.324 9.14647C19.3064 9.14647 19.154 9.24022 18.9783 9.34569Z" fill="black"/>
<path d="M11.0451 12.1933C10.6642 12.4219 10.6525 12.4394 10.7287 12.5566C10.7697 12.6269 11.0685 13.1191 11.3849 13.6523C11.7013 14.1855 11.9884 14.6484 12.0236 14.6894C12.0704 14.7422 12.1759 14.707 12.4513 14.5429C12.6564 14.4258 12.8204 14.3027 12.8204 14.2793C12.8204 14.2324 11.5665 12.0996 11.4787 12C11.4552 11.9765 11.2619 12.0644 11.0451 12.1933Z" fill="black"/>
<path d="M18.826 12.4218C18.6737 12.6855 18.5565 12.9023 18.5682 12.914C18.6854 13.0019 19.3358 13.3652 19.3475 13.3535C19.3651 13.3359 19.7928 12.6386 19.8866 12.4687C19.8983 12.4511 19.7869 12.3574 19.6346 12.2695C19.4764 12.1816 19.2948 12.0761 19.2303 12.0293C19.1073 11.9531 19.0897 11.9707 18.826 12.4218Z" fill="black"/>
<path d="M17.9824 13.8224C17.8535 14.045 17.7422 14.256 17.7422 14.2852C17.7422 14.3614 18.4395 14.7774 18.5039 14.7364C18.5977 14.6778 19.0371 13.881 19.002 13.8282C18.9609 13.7638 18.3633 13.4181 18.2813 13.4181C18.252 13.4181 18.1172 13.5997 17.9824 13.8224Z" fill="black"/>
</svg>
