<svg width="28" height="6" viewBox="0 0 28 6" fill="none" xmlns="http://www.w3.org/2000/svg">
<path d="M25.2854 0.75C24.6887 0.75 24.1164 0.987052 23.6944 1.40901C23.2725 1.83097 23.0354 2.40326 23.0354 3C23.0354 3.59674 23.2725 4.16903 23.6944 4.59099C24.1164 5.01295 24.6887 5.25 25.2854 5.25C25.8821 5.25 26.4544 5.01295 26.8764 4.59099C27.2983 4.16903 27.5354 3.59674 27.5354 3C27.5354 2.40326 27.2983 1.83097 26.8764 1.40901C26.4544 0.987052 25.8821 0.75 25.2854 0.75ZM14.0354 0.749999C13.4387 0.749999 12.8664 0.987052 12.4444 1.40901C12.0225 1.83097 11.7854 2.40326 11.7854 3C11.7854 3.59674 12.0225 4.16903 12.4444 4.59099C12.8664 5.01295 13.4387 5.25 14.0354 5.25C14.6321 5.25 15.2044 5.01295 15.6264 4.59099C16.0483 4.16903 16.2854 3.59674 16.2854 3C16.2854 2.40326 16.0483 1.83097 15.6264 1.40901C15.2044 0.987052 14.6321 0.749999 14.0354 0.749999ZM2.7854 0.749999C2.18866 0.749999 1.61637 0.987051 1.19441 1.40901C0.772451 1.83096 0.535398 2.40326 0.535398 3C0.535398 3.59674 0.772451 4.16903 1.19441 4.59099C1.61637 5.01294 2.18866 5.25 2.7854 5.25C3.38214 5.25 3.95443 5.01295 4.37639 4.59099C4.79835 4.16903 5.0354 3.59674 5.0354 3C5.0354 2.40326 4.79835 1.83097 4.37639 1.40901C3.95443 0.987051 3.38214 0.749999 2.7854 0.749999Z" fill="#BFBFBF"/>
</svg>
