<svg width="289" height="191" viewBox="0 0 289 191" fill="none" xmlns="http://www.w3.org/2000/svg">
<path d="M145.198 85.75H145.802" stroke="#D2D2D2" stroke-width="8" stroke-linecap="round" stroke-linejoin="round"/>
<path d="M200 58.5C200 28.4015 175.599 4 145.5 4C115.401 4 91 28.4015 91 58.5C91 88.5985 115.401 113 145.5 113C175.599 113 200 88.5985 200 58.5Z" stroke="#D2D2D2" stroke-width="8" stroke-linecap="round" stroke-linejoin="round"/>
<path d="M145.5 58.4975V28.2188" stroke="#D2D2D2" stroke-width="8" stroke-linecap="round" stroke-linejoin="round"/>
<path d="M17.4902 155.281C17.4902 157.988 16.916 160.426 15.7676 162.594C14.6191 164.762 12.9551 166.625 10.7754 168.184C8.5957 169.73 5.95312 170.938 2.84766 171.805L1.2832 168.746C3.87305 168.043 6.06445 167.117 7.85742 165.969C9.66211 164.809 11.0391 163.479 11.9883 161.979C12.9375 160.467 13.4121 158.838 13.4121 157.092V155.281H17.4902ZM16.084 158.428H2.98828V155.281H16.084V158.428ZM27.668 171.26H23.7656V153.383H27.668V171.26ZM24.3457 164.352H17.666V161.135H24.3457V164.352ZM27.668 184.725H6.76758V172.561H27.668V184.725ZM10.582 181.613H23.7832V175.637H10.582V181.613ZM41.3965 159.096C41.3965 160.877 41.1152 162.594 40.5527 164.246C40.002 165.898 39.1699 167.375 38.0566 168.676C36.9551 169.965 35.5898 170.955 33.9609 171.646L31.8691 168.641C33.2754 168.02 34.459 167.199 35.4199 166.18C36.3926 165.148 37.1191 164.023 37.5996 162.805C38.0801 161.586 38.3203 160.35 38.3203 159.096V155.246H41.3965V159.096ZM42.0996 159.096C42.0996 160.303 42.3223 161.475 42.7676 162.611C43.2246 163.736 43.9102 164.756 44.8242 165.67C45.75 166.572 46.8867 167.293 48.2344 167.832L46.1426 170.82C44.584 170.188 43.2715 169.279 42.2051 168.096C41.1387 166.912 40.3418 165.553 39.8145 164.018C39.2871 162.471 39.0234 160.83 39.0234 159.096V155.246H42.0996V159.096ZM59.3438 172.596H55.6172V153.383H59.3438V172.596ZM56.707 164.51H51.2578V161.293H56.707V164.51ZM52.4531 172.438H48.8145V153.91H52.4531V172.438ZM59.3438 185.094H55.4766V177.271H37.582V174.107H59.3438V185.094ZM89.8945 169.432H85.9922V153.348H89.8945V169.432ZM79.7871 154.719C79.7871 157.438 79.2246 159.822 78.0996 161.873C76.9746 163.924 75.3223 165.635 73.1426 167.006C70.9746 168.377 68.2793 169.426 65.0566 170.152L63.7207 166.953C66.3809 166.391 68.5898 165.617 70.3477 164.633C72.1172 163.648 73.4238 162.494 74.2676 161.17C75.123 159.834 75.5508 158.357 75.5508 156.74V154.719H79.7871ZM77.1855 157.865H65.4434V154.719H77.1855V157.865ZM86.502 160.572H78.5742V157.566H86.502V160.572ZM86.3262 166.689H78.3281V163.684H86.3262V166.689ZM89.8945 179.047H72.9141V183.441H69.0293V176.129H85.957V173.756H68.959V170.662H89.8945V179.047ZM90.7031 184.812H69.0293V181.666H90.7031V184.812ZM109.828 159.781H95.8008V156.652H109.828V159.781ZM104.115 176.498H100.283V165.74H104.115V176.498ZM112.166 158.885C112.154 160.396 112.137 161.668 112.113 162.699C112.09 163.719 112.014 164.973 111.885 166.461C111.756 167.938 111.551 169.525 111.27 171.225L107.402 170.891C107.777 168.535 108.012 166.461 108.105 164.668C108.211 162.863 108.264 160.936 108.264 158.885V156.652H112.166V158.885ZM119.32 185.094H115.4V153.348H119.32V185.094ZM123.908 169.572H118.178V166.285H123.908V169.572ZM94.0957 175.32C98.0566 175.285 101.607 175.209 104.748 175.092C107.9 174.963 110.895 174.723 113.73 174.371L113.959 177.289C111.006 177.758 107.895 178.074 104.625 178.238C101.367 178.402 97.9922 178.473 94.5 178.449L94.0957 175.32ZM150.398 185.076H146.496V153.348H150.398V185.076ZM155.109 169.01H149.396V165.775H155.109V169.01ZM142.014 156.67C142.014 159.904 141.527 162.916 140.555 165.705C139.594 168.482 138.041 171.037 135.896 173.369C133.752 175.689 130.975 177.699 127.564 179.398L125.367 176.375C128.238 174.922 130.617 173.264 132.504 171.4C134.402 169.537 135.82 167.445 136.758 165.125C137.695 162.793 138.164 160.203 138.164 157.355V156.67H142.014ZM140.15 159.887H127.02V156.67H140.15V159.887ZM172.424 175.373H176.59V171.963H180.211V184.725H168.785V171.963H172.424V175.373ZM176.59 181.736V178.273H172.424V181.736H176.59ZM188.666 174.248C188.666 175.783 188.426 177.26 187.945 178.678C187.465 180.084 186.732 181.338 185.748 182.439C184.764 183.553 183.539 184.402 182.074 184.988L180.105 182.053C181.336 181.549 182.367 180.887 183.199 180.066C184.031 179.246 184.652 178.338 185.062 177.342C185.473 176.334 185.678 175.303 185.678 174.248V171.699H188.666V174.248ZM189.58 174.248C189.58 175.385 189.773 176.463 190.16 177.482C190.559 178.49 191.18 179.398 192.023 180.207C192.879 181.004 193.934 181.619 195.188 182.053L193.184 184.988C191.66 184.449 190.406 183.641 189.422 182.562C188.438 181.484 187.717 180.242 187.26 178.836C186.814 177.418 186.592 175.889 186.592 174.248V171.699H189.58V174.248ZM189.58 163.596H181.354V160.414H189.58V163.596ZM174.023 154.631C175.594 154.631 177.006 154.941 178.26 155.562C179.525 156.184 180.521 157.062 181.248 158.199C181.986 159.324 182.355 160.602 182.355 162.031C182.355 163.473 181.986 164.762 181.248 165.898C180.521 167.023 179.525 167.908 178.26 168.553C177.006 169.186 175.594 169.502 174.023 169.502C172.418 169.502 170.977 169.186 169.699 168.553C168.422 167.908 167.426 167.023 166.711 165.898C165.996 164.762 165.639 163.473 165.639 162.031C165.639 160.602 165.996 159.324 166.711 158.199C167.426 157.062 168.422 156.184 169.699 155.562C170.977 154.941 172.418 154.631 174.023 154.631ZM174.023 157.865C173.121 157.865 172.312 158.041 171.598 158.393C170.895 158.732 170.344 159.219 169.945 159.852C169.547 160.484 169.348 161.211 169.348 162.031C169.348 162.863 169.547 163.602 169.945 164.246C170.344 164.891 170.895 165.395 171.598 165.758C172.312 166.109 173.121 166.291 174.023 166.303C174.914 166.291 175.705 166.109 176.396 165.758C177.1 165.395 177.645 164.891 178.031 164.246C178.418 163.602 178.611 162.863 178.611 162.031C178.611 161.211 178.418 160.484 178.031 159.852C177.645 159.219 177.1 158.732 176.396 158.393C175.705 158.041 174.914 157.865 174.023 157.865ZM191.812 170.17H187.91V153.348H191.812V170.17ZM203.678 175.443H217.652V172.402H221.555V184.725H199.793V172.402H203.678V175.443ZM217.652 181.648V178.432H203.678V181.648H217.652ZM225.264 170.592H196.33V167.428H225.264V170.592ZM212.168 154.895C212.168 156.688 211.617 158.352 210.516 159.887C209.414 161.41 207.885 162.682 205.928 163.701C203.971 164.721 201.744 165.4 199.248 165.74L197.807 162.664C199.963 162.395 201.879 161.873 203.555 161.1C205.23 160.314 206.52 159.383 207.422 158.305C208.336 157.215 208.793 156.078 208.793 154.895V153.682H212.168V154.895ZM212.818 154.895C212.818 156.055 213.275 157.18 214.189 158.27C215.104 159.359 216.393 160.303 218.057 161.1C219.732 161.896 221.631 162.418 223.752 162.664L222.363 165.74C219.855 165.4 217.617 164.715 215.648 163.684C213.691 162.652 212.168 161.381 211.078 159.869C209.988 158.346 209.443 156.688 209.443 154.895V153.682H212.818V154.895ZM253.951 185.094H250.066V153.348H253.951V185.094ZM233.121 176.111H229.254V156.424H233.121V176.111ZM231.979 173.826C234.51 173.826 237.047 173.715 239.59 173.492C242.133 173.258 244.67 172.889 247.201 172.385L247.711 175.637C245.074 176.176 242.461 176.562 239.871 176.797C237.281 177.031 234.65 177.148 231.979 177.148H229.254V173.826H231.979ZM283.43 185.182H279.527V153.348H283.43V185.182ZM288.334 168.623H282.551V165.406H288.334V168.623ZM262.459 174.143C265.4 174.154 267.984 174.084 270.211 173.932C272.449 173.779 274.705 173.498 276.979 173.088L277.418 176.393C275.121 176.803 272.842 177.072 270.58 177.201C268.33 177.33 265.623 177.389 262.459 177.377H259.84V174.143H262.459ZM274.711 159.535H263.742V175.725H259.84V156.354H274.711V159.535Z" fill="black"/>
</svg>
