<svg width="21" height="22" viewBox="0 0 21 22" fill="none" xmlns="http://www.w3.org/2000/svg">
<path d="M10.4995 21H20M15.1188 1.73146C15.5391 1.26312 16.109 1 16.7033 1C17.2976 1 17.8676 1.26312 18.2878 1.73146C18.708 2.19981 18.9441 2.83503 18.9441 3.49737C18.9441 4.15972 18.708 4.79494 18.2878 5.26328L5.60987 19.3941C5.35873 19.674 5.04831 19.8787 4.70732 19.9894L1.67559 20.9753C1.58476 21.0048 1.48847 21.0066 1.39682 20.9804C1.30516 20.9542 1.2215 20.9011 1.15459 20.8265C1.08769 20.752 1.04 20.6587 1.01651 20.5566C0.993031 20.4544 0.994619 20.3471 1.02111 20.2459L1.90572 16.867C2.00518 16.4874 2.18888 16.1418 2.43986 15.8623L15.1188 1.73146Z" stroke="#BFBFBF" stroke-width="2" stroke-linecap="round" stroke-linejoin="round"/>
</svg>
