<svg width="21" height="21" viewBox="0 0 21 21" fill="none" xmlns="http://www.w3.org/2000/svg">
<path d="M15.225 0C13.398 0 11.6445 0.926976 10.5 2.39183C9.3555 0.926976 7.602 0 5.775 0C2.541 0 0 2.76948 0 6.29428C0 10.6202 3.57 14.145 8.9775 19.5008L10.5 21L12.0225 19.4894C17.43 14.145 21 10.6202 21 6.29428C21 2.76948 18.459 0 15.225 0ZM10.605 17.7956L10.5 17.9101L10.395 17.7956C5.397 12.8632 2.1 9.60163 2.1 6.29428C2.1 4.00545 3.675 2.28883 5.775 2.28883C7.392 2.28883 8.967 3.4218 9.5235 4.98965H11.487C12.033 3.4218 13.608 2.28883 15.225 2.28883C17.325 2.28883 18.9 4.00545 18.9 6.29428C18.9 9.60163 15.603 12.8632 10.605 17.7956Z" fill="#FF5B55"/>
</svg>
