<svg width="17" height="18" viewBox="0 0 17 18" fill="none" xmlns="http://www.w3.org/2000/svg">
<path d="M16.8233 15.4996L12.0606 10.714C12.9411 9.36938 13.2937 7.74433 13.0503 6.15347C12.8068 4.5626 11.9846 3.11909 10.7427 2.1024C9.50084 1.08572 7.92773 0.568188 6.32792 0.650012C4.72812 0.731835 3.21544 1.40719 2.08274 2.54532C0.950043 3.68346 0.277913 5.2034 0.19648 6.81089C0.115048 8.41837 0.630106 9.99904 1.64193 11.2469C2.65376 12.4947 4.09038 13.3209 5.67365 13.5655C7.25691 13.8101 8.8742 13.4558 10.2124 12.571L14.9751 17.3567L16.8233 15.4996ZM2.03785 7.14286C2.03785 4.58291 4.11059 2.50022 6.65832 2.50022C9.20604 2.50022 11.2788 4.58291 11.2788 7.14286C11.2788 9.70282 9.20604 11.7855 6.65832 11.7855C4.11059 11.7855 2.03785 9.70282 2.03785 7.14286Z" fill="#FF7900"/>
</svg>
