<svg width="19" height="18" viewBox="0 0 19 18" fill="none" xmlns="http://www.w3.org/2000/svg">
<path d="M19 16.0002L13.5602 10.8467C14.5658 9.39871 14.9686 7.64874 14.6906 5.93558C14.4125 4.22242 13.4734 2.66794 12.055 1.5731C10.6366 0.478257 8.83984 -0.0790569 7.01262 0.0090565C5.1854 0.0971698 3.45767 0.824443 2.16396 2.05007C0.870245 3.27569 0.102568 4.91248 0.00955963 6.64353C-0.0834489 8.37459 0.504827 10.0768 1.66049 11.4205C2.81616 12.7642 4.457 13.654 6.26533 13.9174C8.07367 14.1808 9.92085 13.7992 11.4493 12.8465L16.8891 18L19 16.0002ZM2.11269 7.00103C2.11269 4.24429 4.48008 2.0015 7.38998 2.0015C10.2999 2.0015 12.6673 4.24429 12.6673 7.00103C12.6673 9.75777 10.2999 12.0006 7.38998 12.0006C4.48008 12.0006 2.11269 9.75777 2.11269 7.00103Z" fill="#FF7900"/>
</svg>
