<svg width="21" height="21" viewBox="0 0 21 21" fill="none" xmlns="http://www.w3.org/2000/svg">
<path d="M10.5 0C4.70156 0 0 4.70156 0 10.5C0 16.2984 4.70156 21 10.5 21C16.2984 21 21 16.2984 21 10.5C21 4.70156 16.2984 0 10.5 0ZM10.5 19.2188C5.68594 19.2188 1.78125 15.3141 1.78125 10.5C1.78125 5.68594 5.68594 1.78125 10.5 1.78125C15.3141 1.78125 19.2188 5.68594 19.2188 10.5C19.2188 15.3141 15.3141 19.2188 10.5 19.2188Z" fill="#8C8C8C"/>
<path d="M14.5947 13.465L11.2525 11.0486V5.2478C11.2525 5.14468 11.1682 5.0603 11.065 5.0603H9.93768C9.83456 5.0603 9.75018 5.14468 9.75018 5.2478V11.7025C9.75018 11.7634 9.77831 11.8197 9.82753 11.8548L13.7041 14.6814C13.7885 14.7423 13.9057 14.7236 13.9666 14.6416L14.6369 13.7275C14.6978 13.6408 14.6791 13.5236 14.5947 13.465Z" fill="#8C8C8C"/>
</svg>
