<svg width="13" height="12" viewBox="0 0 13 12" fill="none" xmlns="http://www.w3.org/2000/svg">
<path d="M4.74988 2.96905H5.90457V8.25499C5.90457 8.32374 5.96082 8.37999 6.02957 8.37999H6.96707C7.03582 8.37999 7.09207 8.32374 7.09207 8.25499V2.96905H8.24988C8.35457 2.96905 8.41238 2.84874 8.34832 2.76749L6.59832 0.551867C6.58662 0.536927 6.57168 0.524844 6.55463 0.516534C6.53757 0.508225 6.51885 0.503906 6.49988 0.503906C6.48091 0.503906 6.46218 0.508225 6.44513 0.516534C6.42807 0.524844 6.41313 0.536927 6.40144 0.551867L4.65144 2.76593C4.58738 2.84874 4.64519 2.96905 4.74988 2.96905V2.96905ZM12.2186 7.78624H11.2811C11.2124 7.78624 11.1561 7.84249 11.1561 7.91124V10.3175H1.84363V7.91124C1.84363 7.84249 1.78738 7.78624 1.71863 7.78624H0.781128C0.712378 7.78624 0.656128 7.84249 0.656128 7.91124V11.005C0.656128 11.2816 0.879565 11.505 1.15613 11.505H11.8436C12.1202 11.505 12.3436 11.2816 12.3436 11.005V7.91124C12.3436 7.84249 12.2874 7.78624 12.2186 7.78624Z" fill="black" fill-opacity="0.84"/>
</svg>
