<svg width="78" height="82" viewBox="0 0 78 82" fill="none" xmlns="http://www.w3.org/2000/svg">
<path d="M70 46.5789C70 61.4905 56.1208 73.5789 39 73.5789C21.8792 73.5789 8 61.4905 8 46.5789C8 31.6672 21.8792 19.5789 39 19.5789C56.1208 19.5789 70 31.6672 70 46.5789Z" fill="#F4890A"/>
<path d="M48 10.1636H51V21.6636C51 21.6636 50.0911 21.3423 49.5 21.1636C48.9189 20.9879 48 20.7551 48 20.7551V10.1636Z" fill="#037716"/>
<path d="M57.6606 9.0789C51.9877 10.6369 46.8912 10.499 46.2773 8.77091C45.6634 7.04283 49.7645 4.37895 55.4373 2.82097C61.1102 1.26299 66.2067 1.40088 66.8206 3.12896C67.4345 4.85704 63.3335 7.52092 57.6606 9.0789Z" fill="#037716"/>
<path d="M45.1267 10.6221C40.8333 9.64604 37.6426 6.93994 38.0001 4.57788C38.3576 2.21582 42.128 1.09227 46.4214 2.06836C50.7148 3.04445 53.9055 5.75055 53.548 8.11261C53.1905 10.4747 49.4202 11.5982 45.1267 10.6221Z" fill="#037716"/>
<path d="M36 40.7769C36 42.1576 34.6569 43.2769 33 43.2769C31.3431 43.2769 30 42.1576 30 40.7769C30 39.3961 31.3431 38.2769 33 38.2769C34.6569 38.2769 36 39.3961 36 40.7769Z" fill="black" fill-opacity="0.8"/>
<path d="M25.4941 47.8618C25.4941 47.8618 27.8126 52.3109 30.5885 54.1352C33.2313 55.872 35.2404 56.5836 38.6071 56.7531C42.3273 56.9403 44.7652 56.3547 47.8266 54.5133C50.5916 52.8502 53.073 48.6609 53.073 48.6609" stroke="black" stroke-opacity="0.8" stroke-width="3"/>
<ellipse cx="46" cy="40.7769" rx="3" ry="2.5" fill="black" fill-opacity="0.8"/>
</svg>
